<?xml version="1.0" standalone="no"?>
<!DOCTYPE svg PUBLIC "-//W3C//DTD SVG 1.1//EN" "http://www.w3.org/Graphics/SVG/1.1/DTD/svg11.dtd" >
<svg xmlns="http://www.w3.org/2000/svg" xmlns:xlink="http://www.w3.org/1999/xlink" version="1.1">
<metadata>
Created by FontForge 20170731 at Tue Apr 14 10:16:19 1914
 By Aleksey,,,
Copyright (C) 1993; Type Market Ltd. Moscow, 119136, Box 20; phone:(095)1427712; Created by A.Kustov
</metadata>
<defs>
<font id="Micra-Bold" horiz-adv-x="1007" >
  <font-face 
    font-family="Micra"
    font-weight="400"
    font-stretch="normal"
    units-per-em="1000"
    panose-1="0 0 0 0 0 0 0 0 0 0"
    ascent="800"
    descent="-200"
    x-height="715"
    cap-height="715"
    bbox="-62 -227 1577 883"
    underline-thickness="50"
    underline-position="-175"
    unicode-range="U+0020-2122"
  />
<missing-glyph horiz-adv-x="773" 
d="M48 0v773h677v-773h-677zM677 48v677h-581v-677h581z" />
    <glyph glyph-name=".notdef" horiz-adv-x="773" 
d="M48 0v773h677v-773h-677zM677 48v677h-581v-677h581z" />
    <glyph glyph-name=".null" horiz-adv-x="0" 
 />
    <glyph glyph-name="nonmarkingreturn" horiz-adv-x="518" 
 />
    <glyph glyph-name="space" unicode=" " horiz-adv-x="518" 
 />
    <glyph glyph-name="exclam" unicode="!" horiz-adv-x="380" 
d="M88 254v471h200v-471h-200zM78 -10v195h220v-195h-220z" />
    <glyph glyph-name="quotedbl" unicode="&#x22;" horiz-adv-x="356" 
d="M46 708h111l-23 -227h-66zM206 708h111l-23 -227h-66z" />
    <glyph glyph-name="numbersign" unicode="#" horiz-adv-x="633" 
d="M244 617h79l-33 -130h124l34 130h78l-33 -130h130l-18 -80h-133l-25 -100h131l-20 -80h-131l-33 -135h-80l35 135h-124l-37 -135h-79l37 135h-134l17 80h138l25 100h-137l23 80h134zM395 407h-125l-25 -100h124z" />
    <glyph glyph-name="dollar" unicode="$" horiz-adv-x="981" 
d="M581 -12v-75h-210v75q-155 0 -203 13q-117 32 -117 240h220q0 -59 27 -69.5t182 -10.5q158 0 183.5 5.5t25.5 38.5q0 36 -30 47q-41 15 -179 15q-275 0 -347 40t-72 198q0 143 84 187q59 31 226 31v73h210v-73q183 0 237 -34q76 -47 76 -214h-220q0 56 -25.5 66
t-172.5 10q-145 0 -170 -6t-25 -40q0 -36 33 -47.5t166 -11.5q271 0 350 -43t79 -198q0 -141 -75 -183q-61 -34 -253 -34z" />
    <glyph glyph-name="percent" unicode="%" horiz-adv-x="1064" 
d="M92 -11v119l890 616v-125zM127 564q0 108 25 129t150 21q124 0 149.5 -21.5t25.5 -128.5q0 -108 -25 -129t-150 -21t-150 21t-25 129zM237 564q0 -22 15.5 -28.5t50.5 -6.5q30 0 39 2q25 5 25 33q0 21 -16 28t-48 7q-27 0 -37 -2q-29 -6 -29 -33zM594 150q0 108 25 129
t150 21t151 -21t26 -128q0 -108 -25.5 -129.5t-151.5 -21.5q-124 0 -149.5 21.5t-25.5 128.5zM704 150q0 -22 15.5 -28.5t50.5 -6.5q30 0 40 2q26 5 26 33q0 21 -17 28t-49 7q-27 0 -37 -2q-29 -6 -29 -33z" />
    <glyph glyph-name="ampersand" unicode="&#x26;" horiz-adv-x="1198" 
d="M549 725q249 0 318 -29.5t69 -130.5v-75h-220q0 55 -20.5 65t-138.5 10q-94 0 -125 -4.5t-31 -20.5q0 -29 3.5 -37t22.5 -17l361 -181q7 10 9.5 21t2.5 25v39h205v-98q1 -17 1 -27q0 -19 -2.5 -29.5t-13.5 -18.5l157 -81l-93 -135l-128 66q-44 -46 -139 -63
q-79 -14 -238 -14q-303 0 -375 40.5t-72 207.5q0 74 27 117t86 69q-23 29 -28.5 51.5t-5.5 89.5q0 100 65.5 130t302.5 30zM322 238q0 -57 33 -67.5t194 -10.5q67 0 101.5 3t53.5 12l-286 132q-13 7 -18 10q-16 9 -28 9q-21 0 -35.5 -25.5t-14.5 -62.5z" />
    <glyph glyph-name="quotesingle" unicode="'" horiz-adv-x="204" 
d="M46 708h111l-23 -227h-66z" />
    <glyph glyph-name="parenleft" unicode="(" horiz-adv-x="392" 
d="M311 810v-130h-35q-36 0 -50.5 -65t-14.5 -247q0 -185 14 -249t51 -64h35v-130h-100q-81 0 -119 68q-56 100 -56 375q0 274 56 374q38 68 119 68h100z" />
    <glyph glyph-name="parenright" unicode=")" horiz-adv-x="412" 
d="M44 810h100q81 0 119 -68q56 -99 56 -374q0 -273 -56 -374q-38 -69 -119 -69h-100v130h35q36 0 50.5 65.5t14.5 247.5q0 184 -14 248t-51 64h-35v130z" />
    <glyph glyph-name="asterisk" unicode="*" horiz-adv-x="344" 
d="M184 548l89 -19q20 -4 29 -15t9 -24q0 -14 -9.5 -24.5t-24.5 -10.5q-18 0 -37 21t-41 43q-7 8 -20 20q5 -16 7 -26q9 -34 18 -61q3 -12 3 -21q0 -17 -11 -27t-25 -10q-13 0 -23.5 9.5t-10.5 28.5q0 9 3 20l27 84l-60 -66q-18 -19 -37 -19q-14 0 -24 10.5t-10 24.5
q0 13 8.5 23t30.5 15l87 24l-88 18q-19 3 -29 14t-10 24q0 14 9.5 24.5t23.5 10.5q19 0 36.5 -18.5t52.5 -52.5q5 -4 12 -12l-29 86q-3 12 -3 21q0 17 11 27t24 10q15 0 25 -10t10 -28q0 -9 -3 -20l-26 -86l59 67q16 19 36 19q15 0 25 -10t10 -25q0 -12 -9.5 -22.5
t-29.5 -15.5z" />
    <glyph glyph-name="plus" unicode="+" horiz-adv-x="564" 
d="M67 392h144v145h135v-145h157v-138h-157v-144h-135v144h-144v138z" />
    <glyph glyph-name="comma" unicode="," horiz-adv-x="365" 
d="M68 18v185h220v-245q0 -44 -26 -74.5t-64 -30.5h-105q-24 0 -40 5v105h55q26 0 26 25q0 30 -18 30h-48z" />
    <glyph glyph-name="hyphen" unicode="-" horiz-adv-x="1019" 
d="M143 254v138h730v-138h-730z" />
    <glyph glyph-name="period" unicode="." horiz-adv-x="361" 
d="M68 -11v195h220v-195h-220z" />
    <glyph glyph-name="slash" unicode="/" horiz-adv-x="338" 
d="M341 728l-222 -817h-111l222 817h111z" />
    <glyph glyph-name="zero" unicode="0" horiz-adv-x="1011" 
d="M931 358q0 -246 -61 -303q-70 -65 -369 -65q-298 0 -368 65q-62 58 -62 303t61 302q70 65 369 65t369 -65q61 -56 61 -302zM711 358q0 119 -31 148q-36 34 -179 34q-144 0 -179 -33q-31 -29 -31 -149q0 -119 31 -149q36 -34 179 -34q144 0 177 31.5t33 151.5z" />
    <glyph glyph-name="one" unicode="1" horiz-adv-x="1012" 
d="M774 0h-220v530h-34l-218 -191l-117 146l255 230h334v-715z" />
    <glyph glyph-name="two" unicode="2" horiz-adv-x="1008" 
d="M512 425q130 0 164.5 10t34.5 46q0 43 -25.5 51t-174.5 8q-150 0 -177.5 -12.5t-27.5 -72.5h-210q0 192 61.5 231t353.5 39q267 0 336 -38.5t69 -180.5q0 -160 -83 -209q-78 -46 -322 -46q-135 0 -174 -15q-31 -12 -31 -51h600v-185h-820v220q0 112 103.5 158.5
t322.5 46.5z" />
    <glyph glyph-name="three" unicode="3" horiz-adv-x="1008" 
d="M409 440h87q149 0 173.5 6t24.5 44q0 37 -26 43.5t-172 6.5q-147 0 -172 -10t-25 -70h-205v80q0 121 102 158q75 27 299 27q273 0 344 -45q60 -38 60 -182q0 -58 -19.5 -92t-50.5 -49q44 -10 62 -41t18 -93q0 -154 -67 -193.5t-347 -39.5q-153 0 -220 9q-95 13 -136 50
q-45 41 -45 126v90h205q0 -67 25 -78.5t171 -11.5q158 0 183.5 6.5t25.5 45.5t-26.5 46t-182.5 7h-86v160z" />
    <glyph glyph-name="four" unicode="4" horiz-adv-x="1009" 
d="M805 715v-416h130v-160h-130v-139h-220v139h-545v280l396 296h369zM232 299h353v231h-54l-299 -211v-20z" />
    <glyph glyph-name="five" unicode="5" horiz-adv-x="1009" 
d="M100 285v430h779v-160h-585v-109q41 24 104.5 34t166.5 10q238 0 292 -33q62 -38 62 -207t-70.5 -214.5t-353.5 -45.5q-259 0 -334 29q-82 32 -82 140v71h220q0 -50 25 -58.5t171 -8.5q143 0 173.5 12t30.5 74q0 60 -26 70.5t-178 10.5q-145 0 -170.5 -6t-25.5 -39h-199z
" />
    <glyph glyph-name="six" unicode="6" 
d="M288 404q32 32 97.5 44t182.5 12q206 0 267 -44t61 -191q0 -154 -62 -196q-58 -39 -266 -39q-338 0 -403.5 50.5t-65.5 317.5q0 264 56 315.5t325 51.5q298 0 364 -41q52 -33 52 -184h-205q0 38 -41.5 46.5t-183.5 8.5q-116 0 -139 -16t-23 -97q0 -5 -8 -21t-8 -17z
M496 290q-130 0 -161 -9.5t-31 -55.5q0 -44 32 -54.5t160 -10.5q131 0 163 10t32 55q0 44 -33 54.5t-162 10.5z" />
    <glyph glyph-name="seven" unicode="7" horiz-adv-x="1010" 
d="M98 530v185h788v-175l-405 -540h-272l400 530h-511z" />
    <glyph glyph-name="eight" unicode="8" 
d="M106 500q0 152 69 188.5t329 36.5q259 0 322 -34q70 -38 70 -191q0 -49 -17 -84q-20 -34 -57 -51q40 -12 62 -46.5t22 -95.5q0 -158 -63 -195.5t-336 -37.5q-279 0 -344.5 37.5t-65.5 195.5q0 60 25 97q22 33 64 45q-37 9 -58.5 49t-21.5 86zM311 500q0 -39 29.5 -47
t161.5 -8q134 0 161.5 7.5t27.5 47.5q0 39 -29.5 47t-160.5 8q-134 0 -162 -7.5t-28 -47.5zM302 223q0 -44 30 -53.5t169 -9.5q138 0 169 9.5t31 53.5q0 43 -31 52.5t-169 9.5q-140 0 -169.5 -8.5t-29.5 -53.5z" />
    <glyph glyph-name="nine" unicode="9" horiz-adv-x="1010" 
d="M708 311q-32 -32 -97.5 -44t-182.5 -12q-206 0 -267 44t-61 191q0 154 60 194.5t268 40.5q338 0 403.5 -50.5t65.5 -317.5q0 -264 -58 -317q-54 -50 -323 -50q-297 0 -363 41q-53 33 -53 184h205q0 -38 48 -48q35 -7 177 -7q116 0 139 16t23 97q0 4 7 19q4 9 9 19z
M500 425q130 0 161 9.5t31 55.5q0 44 -32 54.5t-160 10.5q-131 0 -163 -10t-32 -55q0 -44 33 -54.5t162 -10.5z" />
    <glyph glyph-name="colon" unicode=":" horiz-adv-x="366" 
d="M72 529v195h220v-195h-220zM72 -11v195h220v-195h-220z" />
    <glyph glyph-name="semicolon" unicode=";" horiz-adv-x="399" 
d="M88 528v195h220v-195h-220zM88 203h220v-245q0 -44 -26 -74.5t-64 -30.5h-105q-25 0 -40 5v105h55q26 0 26 25q0 30 -18 30h-48v185z" />
    <glyph glyph-name="less" unicode="&#x3c;" horiz-adv-x="367" 
d="M31 294v99l286 194v-134l-169 -107l169 -108v-134z" />
    <glyph glyph-name="equal" unicode="=" horiz-adv-x="538" 
d="M68 279h408v-111h-408v111zM68 479h408v-111h-408v111z" />
    <glyph glyph-name="greater" unicode="&#x3e;" horiz-adv-x="367" 
d="M333 294l-285 -190v134l169 108l-169 107v134l285 -194v-99z" />
    <glyph glyph-name="question" unicode="?" horiz-adv-x="889" 
d="M415 724q213 0 275 -30q85 -41 85 -187q0 -92 -43 -148q-38 -50 -102 -60q-109 -18 -133 -29.5t-24 -40.5h-203v70q0 61 43 89.5t145 45.5q70 11 98.5 27.5t28.5 45.5q0 42 -22 49.5t-148 7.5q-127 0 -148.5 -14.5t-21.5 -100.5h-190q0 199 60 240q51 35 300 35zM256 179
h229l5 -5v-174h-234v179z" />
    <glyph glyph-name="at" unicode="@" horiz-adv-x="652" 
d="M324 520q-47 0 -75.5 -32.5t-28.5 -72.5q0 -35 24 -61t64 -26q46 0 74 32q24 28 24 68q0 36 -20 62q-23 30 -62 30zM328 668q-110 0 -177 -74q-61 -68 -61 -162t59 -159q67 -73 179 -73q46 0 91.5 17t64.5 41l30 -36q-19 -26 -73.5 -46t-116.5 -20q-135 0 -214 85
q-72 77 -72 189q0 113 73 193q81 89 217 89q104 0 183 -60q101 -76 101 -216q0 -62 -25 -102q-31 -50 -94 -50q-35 0 -55 13t-24 34q-12 -20 -42.5 -33.5t-73.5 -13.5q-61 0 -95.5 37.5t-34.5 90.5q0 59 39 103q43 49 113 49q53 0 85 -25q18 -14 24 -29l3 48h46l-24 -190
q0 -40 45 -40q33 0 50 33t17 79q0 110 -76 173q-67 55 -162 55z" />
    <glyph glyph-name="A" unicode="A" horiz-adv-x="1149" 
d="M377 715h375l356 -715h-257l-68 119h-436l-68 -119h-257zM582 555h-35l-118 -251h271z" />
    <glyph glyph-name="B" unicode="B" 
d="M285 286v-113h381q29 0 46.5 14.5t17.5 39.5q0 35 -15.5 47t-48.5 12h-381zM65 715h639q103 0 150 -30q70 -45 70 -172q0 -56 -20.5 -93.5t-52.5 -52.5q99 -44 99 -169q0 -109 -50.5 -153.5t-169.5 -44.5h-665v715zM285 542v-96h390q27 0 41 11t14 37q0 25 -14.5 36.5
t-40.5 11.5h-390z" />
    <glyph glyph-name="C" unicode="C" horiz-adv-x="1008" 
d="M491 725q306 0 377 -51q62 -44 62 -234h-220q0 62 -34 79q-41 21 -185 21q-160 0 -188.5 -24.5t-28.5 -158.5q0 -135 27.5 -158.5t189.5 -23.5q146 0 182.5 17.5t36.5 82.5h220q0 -191 -60 -234q-71 -51 -379 -51t-372.5 56t-64.5 312q0 255 62 309q67 58 375 58z" />
    <glyph glyph-name="D" unicode="D" horiz-adv-x="1102" 
d="M62 0v715h616q188 0 248 -75q56 -70 56 -283q0 -212 -55 -281q-61 -76 -249 -76h-616zM282 185h359q71 0 96 36.5t25 135.5q0 101 -24.5 137t-96.5 36h-359v-345z" />
    <glyph glyph-name="E" unicode="E" horiz-adv-x="958" 
d="M79 0v715h770v-173h-550v-99h525v-172h-525v-98h550v-173h-770z" />
    <glyph glyph-name="F" unicode="F" horiz-adv-x="920" 
d="M67 0v715h764v-185h-544v-123h514v-185h-514v-222h-220z" />
    <glyph glyph-name="G" unicode="G" horiz-adv-x="1138" 
d="M1031 456h-220q0 62 -31.5 73t-213.5 11q-183 0 -214 -23t-31 -161q0 -132 32.5 -156.5t213.5 -24.5q183 0 213.5 9t30.5 65h-272v160h492q0 -313 -58.5 -366t-405.5 -53q-337 0 -401.5 52.5t-64.5 314.5q0 261 63 313q67 55 403 55q322 0 389 -37q75 -41 75 -232z" />
    <glyph glyph-name="H" unicode="H" horiz-adv-x="1102" 
d="M291 715v-252h475v252h220v-715h-220v278h-475v-278h-220v715h220z" />
    <glyph glyph-name="I" unicode="I" horiz-adv-x="345" 
d="M278 715v-715h-220v715h220z" />
    <glyph glyph-name="J" unicode="J" horiz-adv-x="909" 
d="M567 715h220v-540q0 -115 -101 -155q-76 -30 -267 -30q-190 0 -266 30q-102 40 -102 155v140h220v-66q0 -43 42 -60q35 -14 106 -14q72 0 105 13q43 17 43 61v466z" />
    <glyph glyph-name="K" unicode="K" horiz-adv-x="1060" 
d="M296 715v-251h115l250 251h302l-357 -341l401 -374h-318l-278 279h-115v-279h-220v715h220z" />
    <glyph glyph-name="L" unicode="L" horiz-adv-x="859" 
d="M80 715h220v-530h499v-185h-719v715z" />
    <glyph glyph-name="M" unicode="M" horiz-adv-x="1366" 
d="M78 715h395l188 -402q2 -4 6.5 -45t10.5 -41q5 0 9.5 39.5t7.5 46.5l188 402h375v-715h-220v499q0 12 5 31t5 26q0 6 -6 6q-4 0 -9 -10t-11 -23l-254 -529h-180l-274 531q-5 10 -9 20q-7 13 -11 13q-6 0 -6 -8q0 -5 5 -26.5t5 -28.5v-501h-220v715z" />
    <glyph glyph-name="N" unicode="N" horiz-adv-x="1194" 
d="M1072 715v-715h-360l-377 529q-1 2 -8 17q-10 22 -18 22l-3 -5q0 -7 10.5 -35.5t10.5 -34.5v-493h-220v715h360l376 -529q6 -14 10 -22q9 -17 16 -17q3 4 3 6q0 5 -10 33t-10 36v493h220z" />
    <glyph glyph-name="O" unicode="O" horiz-adv-x="1108" 
d="M1031 357q0 -260 -63 -311q-69 -56 -410 -56q-250 0 -328 18q-98 23 -124 100q-20 59 -20 249q0 261 62 312q68 56 410 56q341 0 409 -55q64 -52 64 -313zM306 357q0 -137 31.5 -159.5t220.5 -22.5t221 23t32 159q0 137 -31.5 160t-220.5 23t-221 -23t-32 -160z" />
    <glyph glyph-name="P" unicode="P" horiz-adv-x="1006" 
d="M93 715h538q176 0 233 -43q71 -54 71 -227t-70 -226q-58 -44 -234 -44h-318v-175h-220v715zM313 360h318q40 0 60 17q24 20 24 68t-22 66.5t-62 18.5h-318v-170z" />
    <glyph glyph-name="Q" unicode="Q" horiz-adv-x="1200" 
d="M1060 356q0 -44 -3 -87t-10 -70l109 -63l-86 -150l-86 51q-52 -32 -126 -40t-283 -8q-338 0 -411 55t-73 312q0 258 66 311q72 57 418 57q349 0 419 -55q66 -52 66 -313zM576 174q129 0 159 6l-196 112l90 159l211 -131v36q0 137 -33 160t-232 23q-197 0 -230.5 -23.5
t-33.5 -159.5t33 -159t232 -23z" />
    <glyph glyph-name="R" unicode="R" horiz-adv-x="1072" 
d="M78 715h640q117 0 168.5 -45.5t51.5 -162.5q0 -92 -22 -136t-77 -66q60 -26 79.5 -52t19.5 -93v-160h-220v128q0 28 -15 47q-19 25 -57 25h-348v-200h-220v715zM298 530v-145h353q36 0 51.5 15.5t15.5 56.5t-16 57t-51 16h-353z" />
    <glyph glyph-name="S" unicode="S" horiz-adv-x="1033" 
d="M505 163q158 0 183.5 5.5t25.5 38.5q0 37 -31 48q-40 14 -178 14q-274 0 -346.5 40t-72.5 198q0 146 94 187q72 31 320 31q269 0 336 -35q83 -43 83 -213h-220q0 56 -25.5 66t-172.5 10q-145 0 -170 -6t-25 -40q0 -36 36.5 -47.5t162.5 -11.5q274 0 351.5 -42.5
t77.5 -198.5q0 -143 -88 -183q-76 -34 -342 -34q-285 0 -352 37q-76 42 -76 216h220q0 -59 27 -69.5t182 -10.5z" />
    <glyph glyph-name="T" unicode="T" horiz-adv-x="1037" 
d="M87 530v185h851v-185h-315v-530h-220v530h-316z" />
    <glyph glyph-name="U" unicode="U" horiz-adv-x="1071" 
d="M992 715v-435q0 -194 -85 -244q-77 -46 -370 -46q-292 0 -369 46q-85 51 -85 244v435h220v-435q0 -65 36 -83q43 -22 198 -22q153 0 194 20.5t41 84.5v435h220z" />
    <glyph glyph-name="V" unicode="V" horiz-adv-x="1115" 
d="M285 715l270 -530h19l271 530h248l-361 -715h-334l-362 715h249z" />
    <glyph glyph-name="W" unicode="W" horiz-adv-x="1521" 
d="M1271 715h235l-277 -715h-337l-122 438q-1 2 -5 51.5t-10 49.5q-7 0 -11 -49.5t-4 -51.5l-121 -438h-337l-277 715h235l198 -530h24l163 530h261l163 -530h24z" />
    <glyph glyph-name="X" unicode="X" horiz-adv-x="1036" 
d="M5 715h305l206 -230l206 230h305l-327 -350l327 -365h-296l-215 240l-215 -240h-296l327 365z" />
    <glyph glyph-name="Y" unicode="Y" horiz-adv-x="1054" 
d="M10 715h301l184 -235q14 -18 19.5 -44t10.5 -50q5 23 10.5 49.5t19.5 44.5l184 235h301l-408 -468v-247h-220v247z" />
    <glyph glyph-name="Z" unicode="Z" horiz-adv-x="1053" 
d="M104 715h853v-175l-494 -355h509v-185h-889v175l488 355h-467v185z" />
    <glyph glyph-name="bracketleft" unicode="[" horiz-adv-x="464" 
d="M99 875h291v-170h-121v-762h121v-170h-291v1102z" />
    <glyph glyph-name="backslash" unicode="\" horiz-adv-x="338" 
d="M6 728h111l222 -817h-111z" />
    <glyph glyph-name="bracketright" unicode="]" horiz-adv-x="464" 
d="M98 705v170h291v-1102h-291v170h121v762h-121z" />
    <glyph glyph-name="asciicircum" unicode="^" horiz-adv-x="406" 
d="M39 399l147 242h40l146 -242h-33l-133 155l-135 -155h-32z" />
    <glyph glyph-name="underscore" unicode="_" horiz-adv-x="389" 
d="M1 -1h388v-55h-388v55z" />
    <glyph glyph-name="grave" unicode="`" horiz-adv-x="320" 
d="M123 758l151 -171l-38 -33l-189 130z" />
    <glyph glyph-name="a" unicode="a" horiz-adv-x="1149" 
d="M377 715h375l356 -715h-257l-68 119h-436l-68 -119h-257zM582 555h-35l-118 -251h271z" />
    <glyph glyph-name="b" unicode="b" 
d="M285 286v-113h381q29 0 46.5 14.5t17.5 39.5q0 35 -15.5 47t-48.5 12h-381zM65 715h639q103 0 150 -30q70 -45 70 -172q0 -56 -20.5 -93.5t-52.5 -52.5q99 -44 99 -169q0 -109 -50.5 -153.5t-169.5 -44.5h-665v715zM285 542v-96h390q27 0 41 11t14 37q0 25 -14.5 36.5
t-40.5 11.5h-390z" />
    <glyph glyph-name="c" unicode="c" horiz-adv-x="1008" 
d="M491 725q306 0 377 -51q62 -44 62 -234h-220q0 62 -34 79q-41 21 -185 21q-160 0 -188.5 -24.5t-28.5 -158.5q0 -135 27.5 -158.5t189.5 -23.5q146 0 182.5 17.5t36.5 82.5h220q0 -191 -60 -234q-71 -51 -379 -51t-372.5 56t-64.5 312q0 255 62 309q67 58 375 58z" />
    <glyph glyph-name="d" unicode="d" horiz-adv-x="1102" 
d="M62 0v715h616q188 0 248 -75q56 -70 56 -283q0 -212 -55 -281q-61 -76 -249 -76h-616zM282 185h359q71 0 96 36.5t25 135.5q0 101 -24.5 137t-96.5 36h-359v-345z" />
    <glyph glyph-name="e" unicode="e" horiz-adv-x="958" 
d="M79 0v715h770v-173h-550v-99h525v-172h-525v-98h550v-173h-770z" />
    <glyph glyph-name="f" unicode="f" horiz-adv-x="920" 
d="M67 0v715h764v-185h-544v-123h514v-185h-514v-222h-220z" />
    <glyph glyph-name="g" unicode="g" horiz-adv-x="1138" 
d="M1031 456h-220q0 62 -31.5 73t-213.5 11q-183 0 -214 -23t-31 -161q0 -132 32.5 -156.5t213.5 -24.5q183 0 213.5 9t30.5 65h-272v160h492q0 -313 -58.5 -366t-405.5 -53q-337 0 -401.5 52.5t-64.5 314.5q0 261 63 313q67 55 403 55q322 0 389 -37q75 -41 75 -232z" />
    <glyph glyph-name="h" unicode="h" horiz-adv-x="1102" 
d="M291 715v-252h475v252h220v-715h-220v278h-475v-278h-220v715h220z" />
    <glyph glyph-name="i" unicode="i" horiz-adv-x="345" 
d="M278 715v-715h-220v715h220z" />
    <glyph glyph-name="j" unicode="j" horiz-adv-x="909" 
d="M567 715h220v-540q0 -115 -101 -155q-76 -30 -267 -30q-190 0 -266 30q-102 40 -102 155v140h220v-66q0 -43 42 -60q35 -14 106 -14q72 0 105 13q43 17 43 61v466z" />
    <glyph glyph-name="k" unicode="k" horiz-adv-x="1060" 
d="M296 715v-251h115l250 251h302l-357 -341l401 -374h-318l-278 279h-115v-279h-220v715h220z" />
    <glyph glyph-name="l" unicode="l" horiz-adv-x="859" 
d="M80 715h220v-530h499v-185h-719v715z" />
    <glyph glyph-name="m" unicode="m" horiz-adv-x="1366" 
d="M78 715h395l188 -402q2 -4 6.5 -45t10.5 -41q5 0 9.5 39.5t7.5 46.5l188 402h375v-715h-220v499q0 12 5 31t5 26q0 6 -6 6q-4 0 -9 -10t-11 -23l-254 -529h-180l-274 531q-5 10 -9 20q-7 13 -11 13q-6 0 -6 -8q0 -5 5 -26.5t5 -28.5v-501h-220v715z" />
    <glyph glyph-name="n" unicode="n" horiz-adv-x="1194" 
d="M1072 715v-715h-360l-377 529q-1 2 -8 17q-10 22 -18 22l-3 -5q0 -7 10.5 -35.5t10.5 -34.5v-493h-220v715h360l376 -529q6 -14 10 -22q9 -17 16 -17q3 4 3 6q0 5 -10 33t-10 36v493h220z" />
    <glyph glyph-name="o" unicode="o" horiz-adv-x="1108" 
d="M1031 357q0 -260 -63 -311q-69 -56 -410 -56q-250 0 -328 18q-98 23 -124 100q-20 59 -20 249q0 261 62 312q68 56 410 56q341 0 409 -55q64 -52 64 -313zM306 357q0 -137 31.5 -159.5t220.5 -22.5t221 23t32 159q0 137 -31.5 160t-220.5 23t-221 -23t-32 -160z" />
    <glyph glyph-name="p" unicode="p" horiz-adv-x="1006" 
d="M93 715h538q176 0 233 -43q71 -54 71 -227t-70 -226q-58 -44 -234 -44h-318v-175h-220v715zM313 360h318q40 0 60 17q24 20 24 68t-22 66.5t-62 18.5h-318v-170z" />
    <glyph glyph-name="q" unicode="q" horiz-adv-x="1200" 
d="M1060 356q0 -44 -3 -87t-10 -70l109 -63l-86 -150l-86 51q-52 -32 -126 -40t-283 -8q-338 0 -411 55t-73 312q0 258 66 311q72 57 418 57q349 0 419 -55q66 -52 66 -313zM576 174q129 0 159 6l-196 112l90 159l211 -131v36q0 137 -33 160t-232 23q-197 0 -230.5 -23.5
t-33.5 -159.5t33 -159t232 -23z" />
    <glyph glyph-name="r" unicode="r" horiz-adv-x="1072" 
d="M78 715h640q117 0 168.5 -45.5t51.5 -162.5q0 -92 -22 -136t-77 -66q60 -26 79.5 -52t19.5 -93v-160h-220v128q0 28 -15 47q-19 25 -57 25h-348v-200h-220v715zM298 530v-145h353q36 0 51.5 15.5t15.5 56.5t-16 57t-51 16h-353z" />
    <glyph glyph-name="s" unicode="s" horiz-adv-x="1033" 
d="M505 163q158 0 183.5 5.5t25.5 38.5q0 37 -31 48q-40 14 -178 14q-274 0 -346.5 40t-72.5 198q0 146 94 187q72 31 320 31q269 0 336 -35q83 -43 83 -213h-220q0 56 -25.5 66t-172.5 10q-145 0 -170 -6t-25 -40q0 -36 36.5 -47.5t162.5 -11.5q274 0 351.5 -42.5
t77.5 -198.5q0 -143 -88 -183q-76 -34 -342 -34q-285 0 -352 37q-76 42 -76 216h220q0 -59 27 -69.5t182 -10.5z" />
    <glyph glyph-name="t" unicode="t" horiz-adv-x="1037" 
d="M87 530v185h851v-185h-315v-530h-220v530h-316z" />
    <glyph glyph-name="u" unicode="u" horiz-adv-x="1071" 
d="M992 715v-435q0 -194 -85 -244q-77 -46 -370 -46q-292 0 -369 46q-85 51 -85 244v435h220v-435q0 -65 36 -83q43 -22 198 -22q153 0 194 20.5t41 84.5v435h220z" />
    <glyph glyph-name="v" unicode="v" horiz-adv-x="1115" 
d="M285 715l270 -530h19l271 530h248l-361 -715h-334l-362 715h249z" />
    <glyph glyph-name="w" unicode="w" horiz-adv-x="1521" 
d="M1271 715h235l-277 -715h-337l-122 438q-1 2 -5 51.5t-10 49.5q-7 0 -11 -49.5t-4 -51.5l-121 -438h-337l-277 715h235l198 -530h24l163 530h261l163 -530h24z" />
    <glyph glyph-name="x" unicode="x" horiz-adv-x="1036" 
d="M5 715h305l206 -230l206 230h305l-327 -350l327 -365h-296l-215 240l-215 -240h-296l327 365z" />
    <glyph glyph-name="y" unicode="y" horiz-adv-x="1054" 
d="M10 715h301l184 -235q14 -18 19.5 -44t10.5 -50q5 23 10.5 49.5t19.5 44.5l184 235h301l-408 -468v-247h-220v247z" />
    <glyph glyph-name="z" unicode="z" horiz-adv-x="1053" 
d="M104 715h853v-175l-494 -355h509v-185h-889v175l488 355h-467v185z" />
    <glyph glyph-name="braceleft" unicode="{" horiz-adv-x="466" 
d="M402 725q-64 0 -92.5 -34t-28.5 -91v-194q0 -36 -15 -58.5t-47 -39.5q34 -19 48 -39t14 -59v-186q0 -53 30.5 -77t90.5 -24v-150q-146 0 -216 48q-75 52 -75 163v226q0 26 -20 54.5t-53 43.5q31 15 49 37q24 28 24 61v258q0 102 74.5 156.5t216.5 54.5v-150z" />
    <glyph glyph-name="bar" unicode="|" horiz-adv-x="200" 
d="M59 739h83v-872h-83v872z" />
    <glyph glyph-name="braceright" unicode="}" horiz-adv-x="466" 
d="M38 725v150q142 0 216.5 -54t74.5 -157v-258q0 -33 23 -60q19 -23 50 -38q-31 -14 -52 -44t-21 -54v-226q0 -111 -72.5 -161t-218.5 -50v150q59 0 90 24t31 77v186q0 38 14 59t48 39q-30 16 -46 39.5t-16 58.5v194q0 58 -26 89q-30 36 -95 36z" />
    <glyph glyph-name="nonbreakingspace" unicode="&#xa0;" horiz-adv-x="500" 
 />
    <glyph glyph-name="exclamdown" unicode="&#xa1;" horiz-adv-x="1041" 
d="M767 715h248l-256 -455q-75 -133 -84 -146q-42 -62 -92 -86q-58 -28 -164 -28h-228v185h239q23 0 30.5 3.5t15.5 18.5l-465 508h305l253 -298q5 -6 11.5 -33t11.5 -27q3 0 4.5 31t9.5 44zM718 854v-99h-354v99h354z" />
    <glyph glyph-name="exclamdown" unicode="&#x40e;" horiz-adv-x="1041" 
d="M767 715h248l-256 -455q-75 -133 -84 -146q-42 -62 -92 -86q-58 -28 -164 -28h-228v185h239q23 0 30.5 3.5t15.5 18.5l-465 508h305l253 -298q5 -6 11.5 -33t11.5 -27q3 0 4.5 31t9.5 44zM718 854v-99h-354v99h354z" />
    <glyph glyph-name="cent" unicode="&#xa2;" horiz-adv-x="1041" 
d="M767 715h248l-256 -455q-75 -133 -84 -146q-42 -62 -92 -86q-58 -28 -164 -28h-228v185h239q23 0 30.5 3.5t15.5 18.5l-465 508h305l253 -298q5 -6 11.5 -33t11.5 -27q3 0 4.5 31t9.5 44zM718 854v-99h-354v99h354z" />
    <glyph glyph-name="cent" unicode="&#x45e;" horiz-adv-x="1041" 
d="M767 715h248l-256 -455q-75 -133 -84 -146q-42 -62 -92 -86q-58 -28 -164 -28h-228v185h239q23 0 30.5 3.5t15.5 18.5l-465 508h305l253 -298q5 -6 11.5 -33t11.5 -27q3 0 4.5 31t9.5 44zM718 854v-99h-354v99h354z" />
    <glyph glyph-name="sterling" unicode="&#xa3;" horiz-adv-x="631" 
d="M68 18v185h220v-245q0 -44 -26 -74.5t-64 -30.5h-105q-24 0 -40 5v105h55q26 0 26 25q0 30 -18 30h-48zM370 18v185h220v-245q0 -44 -26 -74.5t-64 -30.5h-105q-24 0 -40 5v105h55q26 0 26 25q0 30 -18 30h-48z" />
    <glyph glyph-name="sterling" unicode="&#x408;" horiz-adv-x="631" 
d="M68 18v185h220v-245q0 -44 -26 -74.5t-64 -30.5h-105q-24 0 -40 5v105h55q26 0 26 25q0 30 -18 30h-48zM370 18v185h220v-245q0 -44 -26 -74.5t-64 -30.5h-105q-24 0 -40 5v105h55q26 0 26 25q0 30 -18 30h-48z" />
    <glyph glyph-name="brokenbar" unicode="&#xa6;" horiz-adv-x="200" 
d="M59 739h83v-349h-83v349zM59 216h83v-349h-83v349z" />
    <glyph glyph-name="section" unicode="&#xa7;" horiz-adv-x="751" 
d="M517 248q38 0 53 14t15 40v26q0 20 -12.5 35t-34.5 15h-319q-28 0 -41 -17t-13 -45v-22q0 -21 10.5 -33.5t32.5 -12.5h309zM724 278q0 -46 -19.5 -77t-56.5 -38q12 -9 18 -17q18 -25 18 -62v-31q0 -55 -44.5 -91t-125.5 -36h-293q-70 0 -114 42t-44 105v10h150v-10
q0 -18 18 -25.5t60 -7.5h177q34 0 45 3q33 9 33 46q0 28 -20.5 42.5t-56.5 14.5h-283q-83 0 -121.5 33.5t-38.5 94.5v67q0 50 26 83q21 26 50 35q-21 23 -25 30q-11 18 -11 45v34q0 55 38.5 91.5t109.5 36.5h313q80 0 121 -43q36 -38 36 -104v-10h-152v10q0 18 -19 26t-70 8
h-164q-39 0 -57 -10.5t-18 -41.5q0 -30 18 -40.5t57 -10.5h301q63 0 103.5 -36t40.5 -95v-71z" />
    <glyph glyph-name="dieresis" unicode="&#xa8;" horiz-adv-x="958" 
d="M79 0v715h770v-173h-550v-99h525v-172h-525v-98h550v-173h-770zM442 882v-118h-220v118h220zM732 882v-118h-220v118h220z" />
    <glyph glyph-name="dieresis" unicode="&#x401;" horiz-adv-x="958" 
d="M79 0v715h770v-173h-550v-99h525v-172h-525v-98h550v-173h-770zM442 882v-118h-220v118h220zM732 882v-118h-220v118h220z" />
    <glyph glyph-name="copyright" unicode="&#xa9;" horiz-adv-x="712" 
d="M504 430h58q0 -62 -27 -87t-99 -25h-154q-75 0 -102.5 26.5t-27.5 98.5v101q0 73 27.5 100.5t102.5 27.5h153q67 0 97 -25t30 -87h-58q0 35 -11.5 44.5t-57.5 9.5h-155q-50 0 -60 -9t-10 -59v-101q0 -47 11 -58t61 -11h152q47 0 58.5 8.5t11.5 45.5zM607 586q0 76 -25 99
t-103 23h-237q-75 0 -104 -25t-29 -98v-173q0 -73 27 -96.5t106 -23.5h237q82 0 105 22t23 98v174zM687 412q0 -118 -49 -161q-44 -39 -159 -39h-237q-114 0 -163.5 46.5t-49.5 153.5v169q0 110 48.5 158.5t164.5 48.5h237q106 0 154 -42q54 -47 54 -165v-169z" />
    <glyph glyph-name="ordfeminine" unicode="&#xaa;" horiz-adv-x="1024" 
d="M515 724q259 0 338 -31q101 -40 101 -175v-79h-220q0 73 -31.5 86.5t-187.5 13.5q-157 0 -187 -14t-30 -91h329v-155h-329q0 -76 31 -90.5t186 -14.5t187 14t32 86h220v-80q0 -135 -100 -174q-79 -31 -339 -31q-308 0 -372.5 56t-64.5 312t60 309q66 58 377 58z" />
    <glyph glyph-name="ordfeminine" unicode="&#x404;" horiz-adv-x="1024" 
d="M515 724q259 0 338 -31q101 -40 101 -175v-79h-220q0 73 -31.5 86.5t-187.5 13.5q-157 0 -187 -14t-30 -91h329v-155h-329q0 -76 31 -90.5t186 -14.5t187 14t32 86h220v-80q0 -135 -100 -174q-79 -31 -339 -31q-308 0 -372.5 56t-64.5 312t60 309q66 58 377 58z" />
    <glyph glyph-name="guillemotleft" unicode="&#xab;" horiz-adv-x="604" 
d="M20 252v50l270 222l60 -73l-213 -172l213 -170l-58 -75zM260 252v50l270 222l60 -73l-213 -172l213 -170l-58 -75z" />
    <glyph glyph-name="minus" unicode="&#xad;" horiz-adv-x="902" 
d="M143 294v160h600v-160h-600z" />
    <glyph glyph-name="registered" unicode="&#xae;" horiz-adv-x="712" 
d="M607 586q0 76 -25 99t-103 23h-237q-75 0 -104 -25t-29 -98v-173q0 -73 27 -96.5t106 -23.5h237q82 0 105 22t23 98v174zM687 412q0 -118 -49 -161q-44 -39 -159 -39h-237q-114 0 -163.5 46.5t-49.5 153.5v169q0 110 48.5 158.5t164.5 48.5h237q106 0 154 -42
q54 -47 54 -165v-169zM228 614v-100h204q33 0 43.5 10.5t10.5 49.5q0 21 -11 30.5t-40 9.5h-207zM228 456v-124h-58v340h253q68 0 96 -26q25 -23 25 -73q0 -69 -26 -88q26 -21 26 -84v-69h-58v69q0 28 -9.5 41.5t-34.5 13.5h-214z" />
    <glyph glyph-name="macron" unicode="&#xaf;" horiz-adv-x="450" 
d="M308 715v-715h-220v715h220zM158 883v-118h-220v118h220zM448 883v-118h-220v118h220z" />
    <glyph glyph-name="macron" unicode="&#x407;" horiz-adv-x="450" 
d="M308 715v-715h-220v715h220zM158 883v-118h-220v118h220zM448 883v-118h-220v118h220z" />
    <glyph glyph-name="degree" unicode="&#xb0;" horiz-adv-x="284" 
d="M43 608q0 32 16.5 48.5t56.5 16.5h60q38 0 54 -17t16 -48v-35q0 -29 -17 -47t-53 -18h-60q-38 0 -55.5 17.5t-17.5 47.5v35zM74 574q0 -36 44 -36h54q43 0 43 36v33q0 36 -43 36h-54q-44 0 -44 -36v-33z" />
    <glyph glyph-name="plusminus" unicode="&#xb1;" horiz-adv-x="556" 
d="M68 247h408v-138h-408v138zM54 552h144v145h135v-145h157v-138h-157v-144h-135v144h-144v138z" />
    <glyph glyph-name="twosuperior" unicode="&#xb2;" horiz-adv-x="345" 
d="M278 715v-715h-220v715h220z" />
    <glyph glyph-name="twosuperior" unicode="&#x406;" horiz-adv-x="345" 
d="M278 715v-715h-220v715h220z" />
    <glyph glyph-name="threesuperior" unicode="&#xb3;" horiz-adv-x="345" 
d="M278 715v-715h-220v715h220z" />
    <glyph glyph-name="threesuperior" unicode="&#x456;" horiz-adv-x="345" 
d="M278 715v-715h-220v715h220z" />
    <glyph glyph-name="paragraph" unicode="&#xb6;" horiz-adv-x="858" 
d="M566 -56h-167v262h-115q-111 0 -177.5 68.5t-66.5 175.5t67.5 175.5t176.5 68.5h282v-750zM810 -56h-167v750h167v-750z" />
    <glyph glyph-name="periodcentered" unicode="&#xb7;" horiz-adv-x="329" 
d="M74 267v166h193v-166h-193z" />
    <glyph glyph-name="periodcentered" unicode="&#x2219;" horiz-adv-x="329" 
d="M74 267v166h193v-166h-193z" />
    <glyph glyph-name="cedilla" unicode="&#xb8;" horiz-adv-x="958" 
d="M79 0v715h770v-173h-550v-99h525v-172h-525v-98h550v-173h-770zM442 882v-118h-220v118h220zM732 882v-118h-220v118h220z" />
    <glyph glyph-name="cedilla" unicode="&#x451;" horiz-adv-x="958" 
d="M79 0v715h770v-173h-550v-99h525v-172h-525v-98h550v-173h-770zM442 882v-118h-220v118h220zM732 882v-118h-220v118h220z" />
    <glyph glyph-name="onesuperior" unicode="&#xb9;" horiz-adv-x="1507" 
d="M1049 715v-715h-359l-377 529q-2 2 -10.5 20.5t-15.5 18.5l-3 -4q0 -7 6 -24q15 -43 15 -47v-493h-220v715h360l376 -529q1 -1 12 -24q7 -15 14 -15l3 5q0 7 -10.5 35.5t-10.5 34.5v493h220zM1120 474q0 43 27.5 70t80.5 27h99q53 0 80 -26t27 -70v-54q0 -43 -27.5 -71.5
t-79.5 -28.5h-99q-51 0 -79.5 27.5t-28.5 71.5v54zM1361 465q0 47 -54 47h-56q-58 0 -58 -47v-37q0 -48 58 -48h56q54 0 54 47v38zM1108 199h343v-75h-343v75z" />
    <glyph glyph-name="onesuperior" unicode="&#x2116;" horiz-adv-x="1507" 
d="M1049 715v-715h-359l-377 529q-2 2 -10.5 20.5t-15.5 18.5l-3 -4q0 -7 6 -24q15 -43 15 -47v-493h-220v715h360l376 -529q1 -1 12 -24q7 -15 14 -15l3 5q0 7 -10.5 35.5t-10.5 34.5v493h220zM1120 474q0 43 27.5 70t80.5 27h99q53 0 80 -26t27 -70v-54q0 -43 -27.5 -71.5
t-79.5 -28.5h-99q-51 0 -79.5 27.5t-28.5 71.5v54zM1361 465q0 47 -54 47h-56q-58 0 -58 -47v-37q0 -48 58 -48h56q54 0 54 47v38zM1108 199h343v-75h-343v75z" />
    <glyph glyph-name="ordmasculine" unicode="&#xba;" horiz-adv-x="1024" 
d="M515 724q259 0 338 -31q101 -40 101 -175v-79h-220q0 73 -31.5 86.5t-187.5 13.5q-157 0 -187 -14t-30 -91h329v-155h-329q0 -76 31 -90.5t186 -14.5t187 14t32 86h220v-80q0 -135 -100 -174q-79 -31 -339 -31q-308 0 -372.5 56t-64.5 312t60 309q66 58 377 58z" />
    <glyph glyph-name="ordmasculine" unicode="&#x454;" horiz-adv-x="1024" 
d="M515 724q259 0 338 -31q101 -40 101 -175v-79h-220q0 73 -31.5 86.5t-187.5 13.5q-157 0 -187 -14t-30 -91h329v-155h-329q0 -76 31 -90.5t186 -14.5t187 14t32 86h220v-80q0 -135 -100 -174q-79 -31 -339 -31q-308 0 -372.5 56t-64.5 312t60 309q66 58 377 58z" />
    <glyph glyph-name="guillemotright" unicode="&#xbb;" horiz-adv-x="613" 
d="M342 252l-265 -212l-60 72l209 167l-207 168l60 73l263 -218v-50zM591 252l-265 -212l-60 72l208 167l-206 168l60 73l263 -218v-50z" />
    <glyph glyph-name="onequarter" unicode="&#xbc;" horiz-adv-x="533" 
d="M68 392h408v-138h-408v138zM172 28v166h193v-166h-193zM172 452v166h193v-166h-193z" />
    <glyph glyph-name="onequarter" unicode="&#x458;" horiz-adv-x="533" 
d="M68 392h408v-138h-408v138zM172 28v166h193v-166h-193zM172 452v166h193v-166h-193z" />
    <glyph glyph-name="onehalf" unicode="&#xbd;" horiz-adv-x="564" 
d="M180 526l101 -102l103 103l96 -96l-103 -102l111 -111l-98 -98l-111 111l-101 -102l-96 96l102 102l-102 101z" />
    <glyph glyph-name="onehalf" unicode="&#x405;" horiz-adv-x="564" 
d="M180 526l101 -102l103 103l96 -96l-103 -102l111 -111l-98 -98l-111 111l-101 -102l-96 96l102 102l-102 101z" />
    <glyph glyph-name="questiondown" unicode="&#xbf;" horiz-adv-x="450" 
d="M308 715v-715h-220v715h220zM158 883v-118h-220v118h220zM448 883v-118h-220v118h220z" />
    <glyph glyph-name="questiondown" unicode="&#x457;" horiz-adv-x="450" 
d="M308 715v-715h-220v715h220zM158 883v-118h-220v118h220zM448 883v-118h-220v118h220z" />
    <glyph glyph-name="Agrave" unicode="&#xc0;" horiz-adv-x="1149" 
d="M377 715h375l356 -715h-257l-68 119h-436l-68 -119h-257zM582 555h-35l-118 -251h271z" />
    <glyph glyph-name="Agrave" unicode="&#x410;" horiz-adv-x="1149" 
d="M377 715h375l356 -715h-257l-68 119h-436l-68 -119h-257zM582 555h-35l-118 -251h271z" />
    <glyph glyph-name="Aacute" unicode="&#xc1;" horiz-adv-x="1043" 
d="M294 285v-112h382q63 0 63 53q0 35 -15.5 47t-48.5 12h-381zM74 0v715h820v-173h-600v-97h444q115 0 168 -52t53 -158q0 -131 -62 -187q-53 -48 -158 -48h-665z" />
    <glyph glyph-name="Aacute" unicode="&#x411;" horiz-adv-x="1043" 
d="M294 285v-112h382q63 0 63 53q0 35 -15.5 47t-48.5 12h-381zM74 0v715h820v-173h-600v-97h444q115 0 168 -52t53 -158q0 -131 -62 -187q-53 -48 -158 -48h-665z" />
    <glyph glyph-name="Acircumflex" unicode="&#xc2;" 
d="M285 286v-113h381q29 0 46.5 14.5t17.5 39.5q0 35 -15.5 47t-48.5 12h-381zM65 715h639q103 0 150 -30q70 -45 70 -172q0 -56 -20.5 -93.5t-52.5 -52.5q99 -44 99 -169q0 -109 -50.5 -153.5t-169.5 -44.5h-665v715zM285 542v-96h390q27 0 41 11t14 37q0 25 -14.5 36.5
t-40.5 11.5h-390z" />
    <glyph glyph-name="Acircumflex" unicode="&#x412;" 
d="M285 286v-113h381q29 0 46.5 14.5t17.5 39.5q0 35 -15.5 47t-48.5 12h-381zM65 715h639q103 0 150 -30q70 -45 70 -172q0 -56 -20.5 -93.5t-52.5 -52.5q99 -44 99 -169q0 -109 -50.5 -153.5t-169.5 -44.5h-665v715zM285 542v-96h390q27 0 41 11t14 37q0 25 -14.5 36.5
t-40.5 11.5h-390z" />
    <glyph glyph-name="Atilde" unicode="&#xc3;" horiz-adv-x="823" 
d="M71 715h715v-185h-495v-530h-220v715z" />
    <glyph glyph-name="Atilde" unicode="&#x413;" horiz-adv-x="823" 
d="M71 715h715v-185h-495v-530h-220v715z" />
    <glyph glyph-name="Adieresis" unicode="&#xc4;" horiz-adv-x="1129" 
d="M121 185q30 0 45.5 111t15.5 419h825v-530h55v-260h-220v30q0 24 -10.5 34.5t-36.5 10.5h-445q-48 0 -48 -45v-30h-220v260h39zM787 185v345h-385q0 -144 -12.5 -236t-31.5 -109h429z" />
    <glyph glyph-name="Adieresis" unicode="&#x414;" horiz-adv-x="1129" 
d="M121 185q30 0 45.5 111t15.5 419h825v-530h55v-260h-220v30q0 24 -10.5 34.5t-36.5 10.5h-445q-48 0 -48 -45v-30h-220v260h39zM787 185v345h-385q0 -144 -12.5 -236t-31.5 -109h429z" />
    <glyph glyph-name="Aring" unicode="&#xc5;" horiz-adv-x="958" 
d="M79 0v715h770v-173h-550v-99h525v-172h-525v-98h550v-173h-770z" />
    <glyph glyph-name="Aring" unicode="&#x415;" horiz-adv-x="958" 
d="M79 0v715h770v-173h-550v-99h525v-172h-525v-98h550v-173h-770z" />
    <glyph glyph-name="AE" unicode="&#xc6;" horiz-adv-x="1623" 
d="M698 715h220v-249h61l248 249h304l-357 -340l403 -375h-320l-278 281h-61v-281h-220v281h-61l-276 -281h-322l403 376l-357 339h306l246 -249h61v249z" />
    <glyph glyph-name="AE" unicode="&#x416;" horiz-adv-x="1623" 
d="M698 715h220v-249h61l248 249h304l-357 -340l403 -375h-320l-278 281h-61v-281h-220v281h-61l-276 -281h-322l403 376l-357 339h306l246 -249h61v249z" />
    <glyph glyph-name="Ccedilla" unicode="&#xc7;" horiz-adv-x="1055" 
d="M413 435h204q66 0 93.5 10.5t27.5 42.5q0 31 -25.5 41.5t-95.5 10.5q-234 0 -272 -12.5t-38 -87.5h-220q0 195 70 240t368 45q187 0 254 -9q96 -13 137.5 -56.5t41.5 -140.5q0 -55 -11 -85q-18 -47 -68 -77q53 -25 66 -54.5t13 -107.5q0 -135 -98 -174q-78 -31 -335 -31
q-308 0 -373 45.5t-65 244.5h220q0 -78 40 -91.5t270 -13.5q67 0 94 10.5t27 42.5q0 31 -27.5 41.5t-93.5 10.5h-204v155z" />
    <glyph glyph-name="Ccedilla" unicode="&#x417;" horiz-adv-x="1055" 
d="M413 435h204q66 0 93.5 10.5t27.5 42.5q0 31 -25.5 41.5t-95.5 10.5q-234 0 -272 -12.5t-38 -87.5h-220q0 195 70 240t368 45q187 0 254 -9q96 -13 137.5 -56.5t41.5 -140.5q0 -55 -11 -85q-18 -47 -68 -77q53 -25 66 -54.5t13 -107.5q0 -135 -98 -174q-78 -31 -335 -31
q-308 0 -373 45.5t-65 244.5h220q0 -78 40 -91.5t270 -13.5q67 0 94 10.5t27 42.5q0 31 -27.5 41.5t-93.5 10.5h-204v155z" />
    <glyph glyph-name="Egrave" unicode="&#xc8;" horiz-adv-x="1199" 
d="M92 715h220v-493q0 -7 -13 -45q-7 -21 -7 -25l3 -5q7 0 15 16q5 11 11 23l376 529h360v-715h-220v493q0 8 10.5 36.5t10.5 33.5l-3 5q-6 0 -13 -13.5t-13 -25.5l-377 -529h-360v715z" />
    <glyph glyph-name="Egrave" unicode="&#x418;" horiz-adv-x="1199" 
d="M92 715h220v-493q0 -7 -13 -45q-7 -21 -7 -25l3 -5q7 0 15 16q5 11 11 23l376 529h360v-715h-220v493q0 8 10.5 36.5t10.5 33.5l-3 5q-6 0 -13 -13.5t-13 -25.5l-377 -529h-360v715z" />
    <glyph glyph-name="Eacute" unicode="&#xc9;" horiz-adv-x="1155" 
d="M84 715h220v-492q0 -7 -13 -46q-7 -21 -7 -25l3 -4q6 0 13 13.5t13 25.5l376 528h360v-715h-220v494q0 8 10.5 37.5t10.5 32.5l-3 5q-7 0 -14 -14t-12 -25l-377 -530h-360v715zM766 854v-99h-354v99h354z" />
    <glyph glyph-name="Eacute" unicode="&#x419;" horiz-adv-x="1155" 
d="M84 715h220v-492q0 -7 -13 -46q-7 -21 -7 -25l3 -4q6 0 13 13.5t13 25.5l376 528h360v-715h-220v494q0 8 10.5 37.5t10.5 32.5l-3 5q-7 0 -14 -14t-12 -25l-377 -530h-360v715zM766 854v-99h-354v99h354z" />
    <glyph glyph-name="Ecircumflex" unicode="&#xca;" horiz-adv-x="1060" 
d="M296 715v-251h115l250 251h302l-357 -341l401 -374h-318l-278 279h-115v-279h-220v715h220z" />
    <glyph glyph-name="Ecircumflex" unicode="&#x41a;" horiz-adv-x="1060" 
d="M296 715v-251h115l250 251h302l-357 -341l401 -374h-318l-278 279h-115v-279h-220v715h220z" />
    <glyph glyph-name="Edieresis" unicode="&#xcb;" horiz-adv-x="1125" 
d="M997 715v-715h-220v530h-391q0 -310 -53 -426q-48 -104 -167 -104h-104v185q77 0 90.5 68.5t13.5 461.5h831z" />
    <glyph glyph-name="Edieresis" unicode="&#x41b;" horiz-adv-x="1125" 
d="M997 715v-715h-220v530h-391q0 -310 -53 -426q-48 -104 -167 -104h-104v185q77 0 90.5 68.5t13.5 461.5h831z" />
    <glyph glyph-name="Igrave" unicode="&#xcc;" horiz-adv-x="1366" 
d="M78 715h395l188 -402q2 -4 6.5 -45t10.5 -41q5 0 9.5 39.5t7.5 46.5l188 402h375v-715h-220v499q0 12 5 31t5 26q0 6 -6 6q-4 0 -9 -10t-11 -23l-254 -529h-180l-274 531q-5 10 -9 20q-7 13 -11 13q-6 0 -6 -8q0 -5 5 -26.5t5 -28.5v-501h-220v715z" />
    <glyph glyph-name="Igrave" unicode="&#x41c;" horiz-adv-x="1366" 
d="M78 715h395l188 -402q2 -4 6.5 -45t10.5 -41q5 0 9.5 39.5t7.5 46.5l188 402h375v-715h-220v499q0 12 5 31t5 26q0 6 -6 6q-4 0 -9 -10t-11 -23l-254 -529h-180l-274 531q-5 10 -9 20q-7 13 -11 13q-6 0 -6 -8q0 -5 5 -26.5t5 -28.5v-501h-220v715z" />
    <glyph glyph-name="Iacute" unicode="&#xcd;" horiz-adv-x="1102" 
d="M291 715v-252h475v252h220v-715h-220v278h-475v-278h-220v715h220z" />
    <glyph glyph-name="Iacute" unicode="&#x41d;" horiz-adv-x="1102" 
d="M291 715v-252h475v252h220v-715h-220v278h-475v-278h-220v715h220z" />
    <glyph glyph-name="Icircumflex" unicode="&#xce;" horiz-adv-x="1108" 
d="M1031 357q0 -260 -63 -311q-69 -56 -410 -56q-250 0 -328 18q-98 23 -124 100q-20 59 -20 249q0 261 62 312q68 56 410 56q341 0 409 -55q64 -52 64 -313zM306 357q0 -137 31.5 -159.5t220.5 -22.5t221 23t32 159q0 137 -31.5 160t-220.5 23t-221 -23t-32 -160z" />
    <glyph glyph-name="Icircumflex" unicode="&#x41e;" horiz-adv-x="1108" 
d="M1031 357q0 -260 -63 -311q-69 -56 -410 -56q-250 0 -328 18q-98 23 -124 100q-20 59 -20 249q0 261 62 312q68 56 410 56q341 0 409 -55q64 -52 64 -313zM306 357q0 -137 31.5 -159.5t220.5 -22.5t221 23t32 159q0 137 -31.5 160t-220.5 23t-221 -23t-32 -160z" />
    <glyph glyph-name="Idieresis" unicode="&#xcf;" horiz-adv-x="1138" 
d="M104 715h935v-715h-220v530h-495v-530h-220v715z" />
    <glyph glyph-name="Idieresis" unicode="&#x41f;" horiz-adv-x="1138" 
d="M104 715h935v-715h-220v530h-495v-530h-220v715z" />
    <glyph glyph-name="Eth" unicode="&#xd0;" horiz-adv-x="1006" 
d="M93 715h538q176 0 233 -43q71 -54 71 -227t-70 -226q-58 -44 -234 -44h-318v-175h-220v715zM313 360h318q40 0 60 17q24 20 24 68t-22 66.5t-62 18.5h-318v-170z" />
    <glyph glyph-name="Eth" unicode="&#x420;" horiz-adv-x="1006" 
d="M93 715h538q176 0 233 -43q71 -54 71 -227t-70 -226q-58 -44 -234 -44h-318v-175h-220v715zM313 360h318q40 0 60 17q24 20 24 68t-22 66.5t-62 18.5h-318v-170z" />
    <glyph glyph-name="Ntilde" unicode="&#xd1;" horiz-adv-x="1008" 
d="M491 725q306 0 377 -51q62 -44 62 -234h-220q0 62 -34 79q-41 21 -185 21q-160 0 -188.5 -24.5t-28.5 -158.5q0 -135 27.5 -158.5t189.5 -23.5q146 0 182.5 17.5t36.5 82.5h220q0 -191 -60 -234q-71 -51 -379 -51t-372.5 56t-64.5 312q0 255 62 309q67 58 375 58z" />
    <glyph glyph-name="Ntilde" unicode="&#x421;" horiz-adv-x="1008" 
d="M491 725q306 0 377 -51q62 -44 62 -234h-220q0 62 -34 79q-41 21 -185 21q-160 0 -188.5 -24.5t-28.5 -158.5q0 -135 27.5 -158.5t189.5 -23.5q146 0 182.5 17.5t36.5 82.5h220q0 -191 -60 -234q-71 -51 -379 -51t-372.5 56t-64.5 312q0 255 62 309q67 58 375 58z" />
    <glyph glyph-name="Ograve" unicode="&#xd2;" horiz-adv-x="1037" 
d="M87 530v185h851v-185h-315v-530h-220v530h-316z" />
    <glyph glyph-name="Ograve" unicode="&#x422;" horiz-adv-x="1037" 
d="M87 530v185h851v-185h-315v-530h-220v530h-316z" />
    <glyph glyph-name="Oacute" unicode="&#xd3;" horiz-adv-x="1041" 
d="M767 715h248l-256 -455q-75 -133 -84 -146q-42 -62 -92 -86q-58 -28 -164 -28h-228v185h239q23 0 30.5 3.5t15.5 18.5l-465 508h305l253 -298q5 -6 11.5 -33t11.5 -27q3 0 4.5 31t9.5 44z" />
    <glyph glyph-name="Oacute" unicode="&#x423;" horiz-adv-x="1041" 
d="M767 715h248l-256 -455q-75 -133 -84 -146q-42 -62 -92 -86q-58 -28 -164 -28h-228v185h239q23 0 30.5 3.5t15.5 18.5l-465 508h305l253 -298q5 -6 11.5 -33t11.5 -27q3 0 4.5 31t9.5 44z" />
    <glyph glyph-name="Ocircumflex" unicode="&#xd4;" horiz-adv-x="1379" 
d="M1050 645q104 0 164 -64q68 -73 68 -221q0 -147 -67 -220q-60 -65 -165 -65h-273v-75h-220v75h-273q-105 0 -165 65q-67 73 -67 220t68 220q60 65 164 65h273v70h220v-70h273zM557 460h-200q-40 0 -60 -21q-25 -26 -25 -85t24 -84q21 -22 61 -22h200v212zM777 460v-212
h200q40 0 60 21q25 26 25 85q0 58 -22.5 82t-62.5 24h-200z" />
    <glyph glyph-name="Ocircumflex" unicode="&#x424;" horiz-adv-x="1379" 
d="M1050 645q104 0 164 -64q68 -73 68 -221q0 -147 -67 -220q-60 -65 -165 -65h-273v-75h-220v75h-273q-105 0 -165 65q-67 73 -67 220t68 220q60 65 164 65h273v70h220v-70h273zM557 460h-200q-40 0 -60 -21q-25 -26 -25 -85t24 -84q21 -22 61 -22h200v212zM777 460v-212
h200q40 0 60 21q25 26 25 85q0 58 -22.5 82t-62.5 24h-200z" />
    <glyph glyph-name="Otilde" unicode="&#xd5;" horiz-adv-x="1036" 
d="M5 715h305l206 -230l206 230h305l-327 -350l327 -365h-296l-215 240l-215 -240h-296l327 365z" />
    <glyph glyph-name="Otilde" unicode="&#x425;" horiz-adv-x="1036" 
d="M5 715h305l206 -230l206 230h305l-327 -350l327 -365h-296l-215 240l-215 -240h-296l327 365z" />
    <glyph glyph-name="Odieresis" unicode="&#xd6;" horiz-adv-x="1145" 
d="M326 185h450v530h220v-530h70v-300h-220v70q0 24 -10.5 34.5t-36.5 10.5h-693v715h220v-530z" />
    <glyph glyph-name="Odieresis" unicode="&#x426;" horiz-adv-x="1145" 
d="M326 185h450v530h220v-530h70v-300h-220v70q0 24 -10.5 34.5t-36.5 10.5h-693v715h220v-530z" />
    <glyph glyph-name="multiply" unicode="&#xd7;" horiz-adv-x="998" 
d="M80 715h220v-267q0 -31 22 -52t64 -21h319v340h220v-715h-220v190h-319q-161 0 -229 52q-77 59 -77 206v267z" />
    <glyph glyph-name="multiply" unicode="&#x427;" horiz-adv-x="998" 
d="M80 715h220v-267q0 -31 22 -52t64 -21h319v340h220v-715h-220v190h-319q-161 0 -229 52q-77 59 -77 206v267z" />
    <glyph glyph-name="Oslash" unicode="&#xd8;" horiz-adv-x="1475" 
d="M120 715h220v-530h295v530h220v-530h295v530h220v-715h-1250v715z" />
    <glyph glyph-name="Oslash" unicode="&#x428;" horiz-adv-x="1475" 
d="M120 715h220v-530h295v530h220v-530h295v530h220v-715h-1250v715z" />
    <glyph glyph-name="Ugrave" unicode="&#xd9;" horiz-adv-x="1493" 
d="M120 715h220v-530h295v530h220v-530h295v530h220v-530h70v-300h-220v70q0 24 -10.5 34.5t-36.5 10.5h-1053v715z" />
    <glyph glyph-name="Ugrave" unicode="&#x429;" horiz-adv-x="1493" 
d="M120 715h220v-530h295v530h220v-530h295v530h220v-530h70v-300h-220v70q0 24 -10.5 34.5t-36.5 10.5h-1053v715z" />
    <glyph glyph-name="Uacute" unicode="&#xda;" horiz-adv-x="1063" 
d="M143 0v540h-80v175h300v-175h318q176 0 233 -43q70 -53 70 -227t-70 -227q-57 -43 -233 -43h-538zM363 355v-170h318q40 0 59 16q24 20 24 69q0 48 -22 66.5t-62 18.5h-317z" />
    <glyph glyph-name="Uacute" unicode="&#x42a;" horiz-adv-x="1063" 
d="M143 0v540h-80v175h300v-175h318q176 0 233 -43q70 -53 70 -227t-70 -227q-57 -43 -233 -43h-538zM363 355v-170h318q40 0 59 16q24 20 24 69q0 48 -22 66.5t-62 18.5h-317z" />
    <glyph glyph-name="Ucircumflex" unicode="&#xdb;" horiz-adv-x="1308" 
d="M1242 715v-715h-220v715h220zM61 0v715h220v-175h318q175 0 232 -44q70 -54 70 -226q0 -173 -69 -226q-57 -44 -233 -44h-538zM281 355v-170h318q40 0 59 16q23 19 23 68t-21 67.5t-61 18.5h-318z" />
    <glyph glyph-name="Ucircumflex" unicode="&#x42b;" horiz-adv-x="1308" 
d="M1242 715v-715h-220v715h220zM61 0v715h220v-175h318q175 0 232 -44q70 -54 70 -226q0 -173 -69 -226q-57 -44 -233 -44h-538zM281 355v-170h318q40 0 59 16q23 19 23 68t-21 67.5t-61 18.5h-318z" />
    <glyph glyph-name="Udieresis" unicode="&#xdc;" horiz-adv-x="979" 
d="M75 0v715h220v-175h318q176 0 233 -43q71 -54 71 -227q0 -174 -70 -227q-57 -43 -234 -43h-538zM295 355v-170h318q40 0 60 17q24 20 24 68q0 49 -24 69q-19 16 -60 16h-318z" />
    <glyph glyph-name="Udieresis" unicode="&#x42c;" horiz-adv-x="979" 
d="M75 0v715h220v-175h318q176 0 233 -43q71 -54 71 -227q0 -174 -70 -227q-57 -43 -234 -43h-538zM295 355v-170h318q40 0 60 17q24 20 24 68q0 49 -24 69q-19 16 -60 16h-318z" />
    <glyph glyph-name="Yacute" unicode="&#xdd;" horiz-adv-x="1024" 
d="M516 725q312 0 377 -57q61 -53 61 -310q0 -255 -65 -311.5t-373 -56.5q-261 0 -338 30q-100 39 -100 175v80h220q0 -73 31 -86.5t187 -13.5t187 14t31 91h-330v155h330q0 76 -31 90.5t-187 14.5q-157 0 -187.5 -13t-30.5 -87h-220v79q0 136 100 175q79 31 338 31z" />
    <glyph glyph-name="Yacute" unicode="&#x42d;" horiz-adv-x="1024" 
d="M516 725q312 0 377 -57q61 -53 61 -310q0 -255 -65 -311.5t-373 -56.5q-261 0 -338 30q-100 39 -100 175v80h220q0 -73 31 -86.5t187 -13.5t187 14t31 91h-330v155h330q0 76 -31 90.5t-187 14.5q-157 0 -187.5 -13t-30.5 -87h-220v79q0 136 100 175q79 31 338 31z" />
    <glyph glyph-name="Thorn" unicode="&#xde;" horiz-adv-x="1366" 
d="M352 455q0 179 78.5 224.5t393.5 45.5q341 0 409 -55q64 -52 64 -313q0 -260 -63 -311q-69 -56 -410 -56q-319 0 -395.5 46t-76.5 234h-118v-270h-220v715h220v-260h118zM825 540q-176 0 -214.5 -27.5t-38.5 -155.5q0 -129 36.5 -155.5t214.5 -26.5q177 0 215.5 27
t38.5 155t-38.5 155.5t-213.5 27.5z" />
    <glyph glyph-name="Thorn" unicode="&#x42e;" horiz-adv-x="1366" 
d="M352 455q0 179 78.5 224.5t393.5 45.5q341 0 409 -55q64 -52 64 -313q0 -260 -63 -311q-69 -56 -410 -56q-319 0 -395.5 46t-76.5 234h-118v-270h-220v715h220v-260h118zM825 540q-176 0 -214.5 -27.5t-38.5 -155.5q0 -129 36.5 -155.5t214.5 -26.5q177 0 215.5 27
t38.5 155t-38.5 155.5t-213.5 27.5z" />
    <glyph glyph-name="germandbls" unicode="&#xdf;" horiz-adv-x="986" 
d="M920 715v-715h-220v200h-348q-37 0 -54.5 -22t-17.5 -50v-128h-220v160q0 65 21 94q18 25 78 51q-54 21 -76.5 66t-22.5 136q0 123 65 171q50 37 155 37h640zM700 530h-353q-36 0 -51.5 -15.5t-15.5 -57.5q0 -40 16 -56t51 -16h353v145z" />
    <glyph glyph-name="germandbls" unicode="&#x42f;" horiz-adv-x="986" 
d="M920 715v-715h-220v200h-348q-37 0 -54.5 -22t-17.5 -50v-128h-220v160q0 65 21 94q18 25 78 51q-54 21 -76.5 66t-22.5 136q0 123 65 171q50 37 155 37h640zM700 530h-353q-36 0 -51.5 -15.5t-15.5 -57.5q0 -40 16 -56t51 -16h353v145z" />
    <glyph glyph-name="agrave" unicode="&#xe0;" horiz-adv-x="1149" 
d="M377 715h375l356 -715h-257l-68 119h-436l-68 -119h-257zM582 555h-35l-118 -251h271z" />
    <glyph glyph-name="agrave" unicode="&#x430;" horiz-adv-x="1149" 
d="M377 715h375l356 -715h-257l-68 119h-436l-68 -119h-257zM582 555h-35l-118 -251h271z" />
    <glyph glyph-name="aacute" unicode="&#xe1;" horiz-adv-x="1043" 
d="M294 285v-112h382q63 0 63 53q0 35 -15.5 47t-48.5 12h-381zM74 0v715h820v-173h-600v-97h444q115 0 168 -52t53 -158q0 -131 -62 -187q-53 -48 -158 -48h-665z" />
    <glyph glyph-name="aacute" unicode="&#x431;" horiz-adv-x="1043" 
d="M294 285v-112h382q63 0 63 53q0 35 -15.5 47t-48.5 12h-381zM74 0v715h820v-173h-600v-97h444q115 0 168 -52t53 -158q0 -131 -62 -187q-53 -48 -158 -48h-665z" />
    <glyph glyph-name="acircumflex" unicode="&#xe2;" 
d="M285 286v-113h381q29 0 46.5 14.5t17.5 39.5q0 35 -15.5 47t-48.5 12h-381zM65 715h639q103 0 150 -30q70 -45 70 -172q0 -56 -20.5 -93.5t-52.5 -52.5q99 -44 99 -169q0 -109 -50.5 -153.5t-169.5 -44.5h-665v715zM285 542v-96h390q27 0 41 11t14 37q0 25 -14.5 36.5
t-40.5 11.5h-390z" />
    <glyph glyph-name="acircumflex" unicode="&#x432;" 
d="M285 286v-113h381q29 0 46.5 14.5t17.5 39.5q0 35 -15.5 47t-48.5 12h-381zM65 715h639q103 0 150 -30q70 -45 70 -172q0 -56 -20.5 -93.5t-52.5 -52.5q99 -44 99 -169q0 -109 -50.5 -153.5t-169.5 -44.5h-665v715zM285 542v-96h390q27 0 41 11t14 37q0 25 -14.5 36.5
t-40.5 11.5h-390z" />
    <glyph glyph-name="atilde" unicode="&#xe3;" horiz-adv-x="823" 
d="M71 715h715v-185h-495v-530h-220v715z" />
    <glyph glyph-name="atilde" unicode="&#x433;" horiz-adv-x="823" 
d="M71 715h715v-185h-495v-530h-220v715z" />
    <glyph glyph-name="adieresis" unicode="&#xe4;" horiz-adv-x="1129" 
d="M121 185q30 0 45.5 111t15.5 419h825v-530h55v-260h-220v30q0 24 -10.5 34.5t-36.5 10.5h-445q-48 0 -48 -45v-30h-220v260h39zM787 185v345h-385q0 -144 -12.5 -236t-31.5 -109h429z" />
    <glyph glyph-name="adieresis" unicode="&#x434;" horiz-adv-x="1129" 
d="M121 185q30 0 45.5 111t15.5 419h825v-530h55v-260h-220v30q0 24 -10.5 34.5t-36.5 10.5h-445q-48 0 -48 -45v-30h-220v260h39zM787 185v345h-385q0 -144 -12.5 -236t-31.5 -109h429z" />
    <glyph glyph-name="aring" unicode="&#xe5;" horiz-adv-x="958" 
d="M79 0v715h770v-173h-550v-99h525v-172h-525v-98h550v-173h-770z" />
    <glyph glyph-name="aring" unicode="&#x435;" horiz-adv-x="958" 
d="M79 0v715h770v-173h-550v-99h525v-172h-525v-98h550v-173h-770z" />
    <glyph glyph-name="ae" unicode="&#xe6;" horiz-adv-x="1623" 
d="M698 715h220v-249h61l248 249h304l-357 -340l403 -375h-320l-278 281h-61v-281h-220v281h-61l-276 -281h-322l403 376l-357 339h306l246 -249h61v249z" />
    <glyph glyph-name="ae" unicode="&#x436;" horiz-adv-x="1623" 
d="M698 715h220v-249h61l248 249h304l-357 -340l403 -375h-320l-278 281h-61v-281h-220v281h-61l-276 -281h-322l403 376l-357 339h306l246 -249h61v249z" />
    <glyph glyph-name="ccedilla" unicode="&#xe7;" horiz-adv-x="1055" 
d="M413 435h204q66 0 93.5 10.5t27.5 42.5q0 31 -25.5 41.5t-95.5 10.5q-234 0 -272 -12.5t-38 -87.5h-220q0 195 70 240t368 45q187 0 254 -9q96 -13 137.5 -56.5t41.5 -140.5q0 -55 -11 -85q-18 -47 -68 -77q53 -25 66 -54.5t13 -107.5q0 -135 -98 -174q-78 -31 -335 -31
q-308 0 -373 45.5t-65 244.5h220q0 -78 40 -91.5t270 -13.5q67 0 94 10.5t27 42.5q0 31 -27.5 41.5t-93.5 10.5h-204v155z" />
    <glyph glyph-name="ccedilla" unicode="&#x437;" horiz-adv-x="1055" 
d="M413 435h204q66 0 93.5 10.5t27.5 42.5q0 31 -25.5 41.5t-95.5 10.5q-234 0 -272 -12.5t-38 -87.5h-220q0 195 70 240t368 45q187 0 254 -9q96 -13 137.5 -56.5t41.5 -140.5q0 -55 -11 -85q-18 -47 -68 -77q53 -25 66 -54.5t13 -107.5q0 -135 -98 -174q-78 -31 -335 -31
q-308 0 -373 45.5t-65 244.5h220q0 -78 40 -91.5t270 -13.5q67 0 94 10.5t27 42.5q0 31 -27.5 41.5t-93.5 10.5h-204v155z" />
    <glyph glyph-name="egrave" unicode="&#xe8;" horiz-adv-x="1199" 
d="M92 715h220v-493q0 -7 -13 -45q-7 -21 -7 -25l3 -5q7 0 15 16q5 11 11 23l376 529h360v-715h-220v493q0 8 10.5 36.5t10.5 33.5l-3 5q-6 0 -13 -13.5t-13 -25.5l-377 -529h-360v715z" />
    <glyph glyph-name="egrave" unicode="&#x438;" horiz-adv-x="1199" 
d="M92 715h220v-493q0 -7 -13 -45q-7 -21 -7 -25l3 -5q7 0 15 16q5 11 11 23l376 529h360v-715h-220v493q0 8 10.5 36.5t10.5 33.5l-3 5q-6 0 -13 -13.5t-13 -25.5l-377 -529h-360v715z" />
    <glyph glyph-name="eacute" unicode="&#xe9;" horiz-adv-x="1155" 
d="M84 715h220v-492q0 -7 -13 -46q-7 -21 -7 -25l3 -4q6 0 13 13.5t13 25.5l376 528h360v-715h-220v494q0 8 10.5 37.5t10.5 32.5l-3 5q-7 0 -14 -14t-12 -25l-377 -530h-360v715zM766 854v-99h-354v99h354z" />
    <glyph glyph-name="eacute" unicode="&#x439;" horiz-adv-x="1155" 
d="M84 715h220v-492q0 -7 -13 -46q-7 -21 -7 -25l3 -4q6 0 13 13.5t13 25.5l376 528h360v-715h-220v494q0 8 10.5 37.5t10.5 32.5l-3 5q-7 0 -14 -14t-12 -25l-377 -530h-360v715zM766 854v-99h-354v99h354z" />
    <glyph glyph-name="ecircumflex" unicode="&#xea;" horiz-adv-x="1060" 
d="M296 715v-251h115l250 251h302l-357 -341l401 -374h-318l-278 279h-115v-279h-220v715h220z" />
    <glyph glyph-name="ecircumflex" unicode="&#x43a;" horiz-adv-x="1060" 
d="M296 715v-251h115l250 251h302l-357 -341l401 -374h-318l-278 279h-115v-279h-220v715h220z" />
    <glyph glyph-name="edieresis" unicode="&#xeb;" horiz-adv-x="1125" 
d="M997 715v-715h-220v530h-391q0 -310 -53 -426q-48 -104 -167 -104h-104v185q77 0 90.5 68.5t13.5 461.5h831z" />
    <glyph glyph-name="edieresis" unicode="&#x43b;" horiz-adv-x="1125" 
d="M997 715v-715h-220v530h-391q0 -310 -53 -426q-48 -104 -167 -104h-104v185q77 0 90.5 68.5t13.5 461.5h831z" />
    <glyph glyph-name="igrave" unicode="&#xec;" horiz-adv-x="1366" 
d="M78 715h395l188 -402q2 -4 6.5 -45t10.5 -41q5 0 9.5 39.5t7.5 46.5l188 402h375v-715h-220v499q0 12 5 31t5 26q0 6 -6 6q-4 0 -9 -10t-11 -23l-254 -529h-180l-274 531q-5 10 -9 20q-7 13 -11 13q-6 0 -6 -8q0 -5 5 -26.5t5 -28.5v-501h-220v715z" />
    <glyph glyph-name="igrave" unicode="&#x43c;" horiz-adv-x="1366" 
d="M78 715h395l188 -402q2 -4 6.5 -45t10.5 -41q5 0 9.5 39.5t7.5 46.5l188 402h375v-715h-220v499q0 12 5 31t5 26q0 6 -6 6q-4 0 -9 -10t-11 -23l-254 -529h-180l-274 531q-5 10 -9 20q-7 13 -11 13q-6 0 -6 -8q0 -5 5 -26.5t5 -28.5v-501h-220v715z" />
    <glyph glyph-name="iacute" unicode="&#xed;" horiz-adv-x="1102" 
d="M291 715v-252h475v252h220v-715h-220v278h-475v-278h-220v715h220z" />
    <glyph glyph-name="iacute" unicode="&#x43d;" horiz-adv-x="1102" 
d="M291 715v-252h475v252h220v-715h-220v278h-475v-278h-220v715h220z" />
    <glyph glyph-name="icircumflex" unicode="&#xee;" horiz-adv-x="1108" 
d="M1031 357q0 -260 -63 -311q-69 -56 -410 -56q-250 0 -328 18q-98 23 -124 100q-20 59 -20 249q0 261 62 312q68 56 410 56q341 0 409 -55q64 -52 64 -313zM306 357q0 -137 31.5 -159.5t220.5 -22.5t221 23t32 159q0 137 -31.5 160t-220.5 23t-221 -23t-32 -160z" />
    <glyph glyph-name="icircumflex" unicode="&#x43e;" horiz-adv-x="1108" 
d="M1031 357q0 -260 -63 -311q-69 -56 -410 -56q-250 0 -328 18q-98 23 -124 100q-20 59 -20 249q0 261 62 312q68 56 410 56q341 0 409 -55q64 -52 64 -313zM306 357q0 -137 31.5 -159.5t220.5 -22.5t221 23t32 159q0 137 -31.5 160t-220.5 23t-221 -23t-32 -160z" />
    <glyph glyph-name="idieresis" unicode="&#xef;" horiz-adv-x="1138" 
d="M104 715h935v-715h-220v530h-495v-530h-220v715z" />
    <glyph glyph-name="idieresis" unicode="&#x43f;" horiz-adv-x="1138" 
d="M104 715h935v-715h-220v530h-495v-530h-220v715z" />
    <glyph glyph-name="eth" unicode="&#xf0;" horiz-adv-x="1006" 
d="M93 715h538q176 0 233 -43q71 -54 71 -227t-70 -226q-58 -44 -234 -44h-318v-175h-220v715zM313 360h318q40 0 60 17q24 20 24 68t-22 66.5t-62 18.5h-318v-170z" />
    <glyph glyph-name="eth" unicode="&#x440;" horiz-adv-x="1006" 
d="M93 715h538q176 0 233 -43q71 -54 71 -227t-70 -226q-58 -44 -234 -44h-318v-175h-220v715zM313 360h318q40 0 60 17q24 20 24 68t-22 66.5t-62 18.5h-318v-170z" />
    <glyph glyph-name="ntilde" unicode="&#xf1;" horiz-adv-x="1008" 
d="M491 725q306 0 377 -51q62 -44 62 -234h-220q0 62 -34 79q-41 21 -185 21q-160 0 -188.5 -24.5t-28.5 -158.5q0 -135 27.5 -158.5t189.5 -23.5q146 0 182.5 17.5t36.5 82.5h220q0 -191 -60 -234q-71 -51 -379 -51t-372.5 56t-64.5 312q0 255 62 309q67 58 375 58z" />
    <glyph glyph-name="ntilde" unicode="&#x441;" horiz-adv-x="1008" 
d="M491 725q306 0 377 -51q62 -44 62 -234h-220q0 62 -34 79q-41 21 -185 21q-160 0 -188.5 -24.5t-28.5 -158.5q0 -135 27.5 -158.5t189.5 -23.5q146 0 182.5 17.5t36.5 82.5h220q0 -191 -60 -234q-71 -51 -379 -51t-372.5 56t-64.5 312q0 255 62 309q67 58 375 58z" />
    <glyph glyph-name="ograve" unicode="&#xf2;" horiz-adv-x="1037" 
d="M87 530v185h851v-185h-315v-530h-220v530h-316z" />
    <glyph glyph-name="ograve" unicode="&#x442;" horiz-adv-x="1037" 
d="M87 530v185h851v-185h-315v-530h-220v530h-316z" />
    <glyph glyph-name="oacute" unicode="&#xf3;" horiz-adv-x="1041" 
d="M767 715h248l-256 -455q-75 -133 -84 -146q-42 -62 -92 -86q-58 -28 -164 -28h-228v185h239q23 0 30.5 3.5t15.5 18.5l-465 508h305l253 -298q5 -6 11.5 -33t11.5 -27q3 0 4.5 31t9.5 44z" />
    <glyph glyph-name="oacute" unicode="&#x443;" horiz-adv-x="1041" 
d="M767 715h248l-256 -455q-75 -133 -84 -146q-42 -62 -92 -86q-58 -28 -164 -28h-228v185h239q23 0 30.5 3.5t15.5 18.5l-465 508h305l253 -298q5 -6 11.5 -33t11.5 -27q3 0 4.5 31t9.5 44z" />
    <glyph glyph-name="ocircumflex" unicode="&#xf4;" horiz-adv-x="1379" 
d="M1050 645q104 0 164 -64q68 -73 68 -221q0 -147 -67 -220q-60 -65 -165 -65h-273v-75h-220v75h-273q-105 0 -165 65q-67 73 -67 220t68 220q60 65 164 65h273v70h220v-70h273zM557 460h-200q-40 0 -60 -21q-25 -26 -25 -85t24 -84q21 -22 61 -22h200v212zM777 460v-212
h200q40 0 60 21q25 26 25 85q0 58 -22.5 82t-62.5 24h-200z" />
    <glyph glyph-name="ocircumflex" unicode="&#x444;" horiz-adv-x="1379" 
d="M1050 645q104 0 164 -64q68 -73 68 -221q0 -147 -67 -220q-60 -65 -165 -65h-273v-75h-220v75h-273q-105 0 -165 65q-67 73 -67 220t68 220q60 65 164 65h273v70h220v-70h273zM557 460h-200q-40 0 -60 -21q-25 -26 -25 -85t24 -84q21 -22 61 -22h200v212zM777 460v-212
h200q40 0 60 21q25 26 25 85q0 58 -22.5 82t-62.5 24h-200z" />
    <glyph glyph-name="otilde" unicode="&#xf5;" horiz-adv-x="1036" 
d="M5 715h305l206 -230l206 230h305l-327 -350l327 -365h-296l-215 240l-215 -240h-296l327 365z" />
    <glyph glyph-name="otilde" unicode="&#x445;" horiz-adv-x="1036" 
d="M5 715h305l206 -230l206 230h305l-327 -350l327 -365h-296l-215 240l-215 -240h-296l327 365z" />
    <glyph glyph-name="odieresis" unicode="&#xf6;" horiz-adv-x="1145" 
d="M326 185h450v530h220v-530h70v-300h-220v70q0 24 -10.5 34.5t-36.5 10.5h-693v715h220v-530z" />
    <glyph glyph-name="odieresis" unicode="&#x446;" horiz-adv-x="1145" 
d="M326 185h450v530h220v-530h70v-300h-220v70q0 24 -10.5 34.5t-36.5 10.5h-693v715h220v-530z" />
    <glyph glyph-name="divide" unicode="&#xf7;" horiz-adv-x="998" 
d="M80 715h220v-267q0 -31 22 -52t64 -21h319v340h220v-715h-220v190h-319q-161 0 -229 52q-77 59 -77 206v267z" />
    <glyph glyph-name="divide" unicode="&#x447;" horiz-adv-x="998" 
d="M80 715h220v-267q0 -31 22 -52t64 -21h319v340h220v-715h-220v190h-319q-161 0 -229 52q-77 59 -77 206v267z" />
    <glyph glyph-name="oslash" unicode="&#xf8;" horiz-adv-x="1475" 
d="M120 715h220v-530h295v530h220v-530h295v530h220v-715h-1250v715z" />
    <glyph glyph-name="oslash" unicode="&#x448;" horiz-adv-x="1475" 
d="M120 715h220v-530h295v530h220v-530h295v530h220v-715h-1250v715z" />
    <glyph glyph-name="ugrave" unicode="&#xf9;" horiz-adv-x="1493" 
d="M120 715h220v-530h295v530h220v-530h295v530h220v-530h70v-300h-220v70q0 24 -10.5 34.5t-36.5 10.5h-1053v715z" />
    <glyph glyph-name="ugrave" unicode="&#x449;" horiz-adv-x="1493" 
d="M120 715h220v-530h295v530h220v-530h295v530h220v-530h70v-300h-220v70q0 24 -10.5 34.5t-36.5 10.5h-1053v715z" />
    <glyph glyph-name="uacute" unicode="&#xfa;" horiz-adv-x="1063" 
d="M143 0v540h-80v175h300v-175h318q176 0 233 -43q70 -53 70 -227t-70 -227q-57 -43 -233 -43h-538zM363 355v-170h318q40 0 59 16q24 20 24 69q0 48 -22 66.5t-62 18.5h-317z" />
    <glyph glyph-name="uacute" unicode="&#x44a;" horiz-adv-x="1063" 
d="M143 0v540h-80v175h300v-175h318q176 0 233 -43q70 -53 70 -227t-70 -227q-57 -43 -233 -43h-538zM363 355v-170h318q40 0 59 16q24 20 24 69q0 48 -22 66.5t-62 18.5h-317z" />
    <glyph glyph-name="ucircumflex" unicode="&#xfb;" horiz-adv-x="1308" 
d="M1242 715v-715h-220v715h220zM61 0v715h220v-175h318q175 0 232 -44q70 -54 70 -226q0 -173 -69 -226q-57 -44 -233 -44h-538zM281 355v-170h318q40 0 59 16q23 19 23 68t-21 67.5t-61 18.5h-318z" />
    <glyph glyph-name="ucircumflex" unicode="&#x44b;" horiz-adv-x="1308" 
d="M1242 715v-715h-220v715h220zM61 0v715h220v-175h318q175 0 232 -44q70 -54 70 -226q0 -173 -69 -226q-57 -44 -233 -44h-538zM281 355v-170h318q40 0 59 16q23 19 23 68t-21 67.5t-61 18.5h-318z" />
    <glyph glyph-name="udieresis" unicode="&#xfc;" horiz-adv-x="979" 
d="M75 0v715h220v-175h318q176 0 233 -43q71 -54 71 -227q0 -174 -70 -227q-57 -43 -234 -43h-538zM295 355v-170h318q40 0 60 17q24 20 24 68q0 49 -24 69q-19 16 -60 16h-318z" />
    <glyph glyph-name="udieresis" unicode="&#x44c;" horiz-adv-x="979" 
d="M75 0v715h220v-175h318q176 0 233 -43q71 -54 71 -227q0 -174 -70 -227q-57 -43 -234 -43h-538zM295 355v-170h318q40 0 60 17q24 20 24 68q0 49 -24 69q-19 16 -60 16h-318z" />
    <glyph glyph-name="yacute" unicode="&#xfd;" horiz-adv-x="1024" 
d="M516 725q312 0 377 -57q61 -53 61 -310q0 -255 -65 -311.5t-373 -56.5q-261 0 -338 30q-100 39 -100 175v80h220q0 -73 31 -86.5t187 -13.5t187 14t31 91h-330v155h330q0 76 -31 90.5t-187 14.5q-157 0 -187.5 -13t-30.5 -87h-220v79q0 136 100 175q79 31 338 31z" />
    <glyph glyph-name="yacute" unicode="&#x44d;" horiz-adv-x="1024" 
d="M516 725q312 0 377 -57q61 -53 61 -310q0 -255 -65 -311.5t-373 -56.5q-261 0 -338 30q-100 39 -100 175v80h220q0 -73 31 -86.5t187 -13.5t187 14t31 91h-330v155h330q0 76 -31 90.5t-187 14.5q-157 0 -187.5 -13t-30.5 -87h-220v79q0 136 100 175q79 31 338 31z" />
    <glyph glyph-name="thorn" unicode="&#xfe;" horiz-adv-x="1366" 
d="M352 455q0 179 78.5 224.5t393.5 45.5q341 0 409 -55q64 -52 64 -313q0 -260 -63 -311q-69 -56 -410 -56q-319 0 -395.5 46t-76.5 234h-118v-270h-220v715h220v-260h118zM825 540q-176 0 -214.5 -27.5t-38.5 -155.5q0 -129 36.5 -155.5t214.5 -26.5q177 0 215.5 27
t38.5 155t-38.5 155.5t-213.5 27.5z" />
    <glyph glyph-name="thorn" unicode="&#x44e;" horiz-adv-x="1366" 
d="M352 455q0 179 78.5 224.5t393.5 45.5q341 0 409 -55q64 -52 64 -313q0 -260 -63 -311q-69 -56 -410 -56q-319 0 -395.5 46t-76.5 234h-118v-270h-220v715h220v-260h118zM825 540q-176 0 -214.5 -27.5t-38.5 -155.5q0 -129 36.5 -155.5t214.5 -26.5q177 0 215.5 27
t38.5 155t-38.5 155.5t-213.5 27.5z" />
    <glyph glyph-name="ydieresis" unicode="&#xff;" horiz-adv-x="986" 
d="M920 715v-715h-220v200h-348q-37 0 -54.5 -22t-17.5 -50v-128h-220v160q0 65 21 94q18 25 78 51q-54 21 -76.5 66t-22.5 136q0 123 65 171q50 37 155 37h640zM700 530h-353q-36 0 -51.5 -15.5t-15.5 -57.5q0 -40 16 -56t51 -16h353v145z" />
    <glyph glyph-name="ydieresis" unicode="&#x44f;" horiz-adv-x="986" 
d="M920 715v-715h-220v200h-348q-37 0 -54.5 -22t-17.5 -50v-128h-220v160q0 65 21 94q18 25 78 51q-54 21 -76.5 66t-22.5 136q0 123 65 171q50 37 155 37h640zM700 530h-353q-36 0 -51.5 -15.5t-15.5 -57.5q0 -40 16 -56t51 -16h353v145z" />
    <glyph glyph-name="endash" unicode="&#x2013;" horiz-adv-x="733" 
d="M67 393h595v-138h-595v138z" />
    <glyph glyph-name="emdash" unicode="&#x2014;" horiz-adv-x="1107" 
d="M68 394h972v-139h-972v139z" />
    <glyph glyph-name="quoteleft" unicode="&#x2018;" horiz-adv-x="289" 
d="M230 566v-194h-193v194q0 113 55 149q44 29 166 29v-93q-41 0 -56.5 -11t-15.5 -43v-31h44z" />
    <glyph glyph-name="quoteright" unicode="&#x2019;" horiz-adv-x="289" 
d="M65 554v194h193v-194q0 -112 -56 -149q-44 -29 -165 -29v93q41 0 56.5 11t15.5 43v31h-44z" />
    <glyph glyph-name="quotesinglbase" unicode="&#x201a;" horiz-adv-x="365" 
d="M68 18v185h220v-245q0 -44 -26 -74.5t-64 -30.5h-105q-24 0 -40 5v105h55q26 0 26 25q0 30 -18 30h-48z" />
    <glyph glyph-name="quotedblleft" unicode="&#x201c;" horiz-adv-x="551" 
d="M230 566v-194h-193v194q0 113 55 149q44 29 166 29v-93q-41 0 -56.5 -11t-15.5 -43v-31h44zM501 566v-194h-193v194q0 113 55 149q44 29 166 29v-93q-41 0 -56.5 -11t-15.5 -43v-31h44z" />
    <glyph glyph-name="quotedblright" unicode="&#x201d;" horiz-adv-x="551" 
d="M336 551v194h193v-194q0 -112 -57 -149q-44 -29 -164 -29v93q41 0 56.5 11t15.5 43v31h-44zM65 551v194h193v-194q0 -112 -56 -149q-44 -29 -165 -29v93q41 0 56.5 11t15.5 43v31h-44z" />
    <glyph glyph-name="quotedblbase" unicode="&#x201e;" horiz-adv-x="631" 
d="M68 18v185h220v-245q0 -44 -26 -74.5t-64 -30.5h-105q-24 0 -40 5v105h55q26 0 26 25q0 30 -18 30h-48zM370 18v185h220v-245q0 -44 -26 -74.5t-64 -30.5h-105q-24 0 -40 5v105h55q26 0 26 25q0 30 -18 30h-48z" />
    <glyph glyph-name="bullet" unicode="&#x2022;" horiz-adv-x="478" 
d="M240 442q76 0 121 -50q41 -46 41 -110q0 -65 -41 -111q-45 -51 -121 -51q-80 0 -127 49q-43 45 -43 109q0 65 43 112q48 52 127 52z" />
    <glyph glyph-name="perthousand" unicode="&#x2030;" horiz-adv-x="1419" 
d="M56 -11v119l890 616v-125zM91 564q0 108 25 129t150 21q124 0 149.5 -21.5t25.5 -128.5q0 -108 -25 -129t-150 -21t-150 21t-25 129zM201 564q0 -22 15.5 -28.5t50.5 -6.5q30 0 39 2q25 5 25 33q0 21 -16 28t-48 7q-27 0 -37 -2q-29 -6 -29 -33zM558 150q0 108 25 129
t150 21t151 -21t26 -128q0 -108 -25.5 -129.5t-151.5 -21.5q-124 0 -149.5 21.5t-25.5 128.5zM668 150q0 -22 15.5 -28.5t50.5 -6.5q30 0 40 2q26 5 26 33q0 21 -17 28t-49 7q-27 0 -37 -2q-29 -6 -29 -33zM1010 150q0 108 25 129t150 21q124 0 149.5 -21.5t25.5 -128.5
q0 -108 -25 -129t-150 -21t-150 21t-25 129zM1120 150q0 -22 15.5 -28.5t50.5 -6.5q30 0 39 2q25 5 25 33q0 21 -16 28t-48 7q-27 0 -37 -2q-29 -6 -29 -33z" />
    <glyph glyph-name="guilsinglleft" unicode="&#x2039;" horiz-adv-x="364" 
d="M20 252v50l270 222l60 -73l-213 -172l213 -170l-58 -75z" />
    <glyph glyph-name="guilsinglright" unicode="&#x203a;" horiz-adv-x="364" 
d="M350 252l-272 -218l-58 75l213 170l-213 172l60 73l270 -222v-50z" />
    <glyph glyph-name="trademark" unicode="&#x2122;" horiz-adv-x="1167" 
d="M40 858h441v-80h-181v-331h-80v331h-180v80zM518 858h102l184 -301l180 301h103v-411h-80v325l-192 -325h-34l-183 320v-320h-80v411z" />
    </font>
</defs>
</svg>
