<svg width="21" height="21" viewBox="0 0 21 21" fill="none" xmlns="http://www.w3.org/2000/svg">
<path d="M10.0563 0.0390625C7.33198 0.0390625 6.99245 0.0522176 5.92626 0.0973207C4.85569 0.149941 4.13153 0.315946 3.49257 0.564013C2.83357 0.822103 2.27228 1.16476 1.71789 1.72229C1.15974 2.27668 0.81395 2.83796 0.559618 3.49697C0.311551 4.13593 0.145546 4.86009 0.0929262 5.93066C0.0446909 6.99747 0.034668 7.33637 0.034668 10.0607C0.034668 12.7851 0.047823 13.1246 0.0929262 14.1908C0.145546 15.2582 0.311551 15.9855 0.559618 16.6245C0.817708 17.2835 1.16037 17.8448 1.71789 18.3992C2.27228 18.9573 2.83357 19.3031 3.49257 19.5574C4.13153 19.8024 4.85882 19.9715 5.92626 20.0241C6.99308 20.0724 7.33198 20.0824 10.0563 20.0824C12.7807 20.0824 13.1202 20.0692 14.1864 20.0241C15.2538 19.9715 15.9811 19.8017 16.6201 19.5574C17.2791 19.2993 17.8404 18.9567 18.3948 18.3992C18.9529 17.8448 19.2987 17.2866 19.553 16.6245C19.798 15.9855 19.9671 15.2582 20.0197 14.1908C20.068 13.124 20.078 12.7851 20.078 10.0607C20.078 7.33637 20.0648 6.99685 20.0197 5.93066C19.9671 4.86322 19.7974 4.13217 19.553 3.49697C19.295 2.83796 18.9523 2.27668 18.3948 1.72229C17.8404 1.16413 17.2822 0.818344 16.6201 0.564013C15.9811 0.315946 15.2538 0.149941 14.1864 0.0973207C13.1196 0.0490854 12.7807 0.0390625 10.0563 0.0390625ZM10.0563 1.84319C12.7318 1.84319 13.0513 1.85634 14.1087 1.90145C15.0841 1.94718 15.6153 2.11005 15.968 2.24786C16.4384 2.43015 16.7673 2.64565 17.1231 2.9977C17.472 3.34662 17.6875 3.67926 17.8698 4.14971C18.0076 4.50239 18.1705 5.03361 18.2162 6.00896C18.2613 7.06638 18.2745 7.38649 18.2745 10.0614C18.2745 12.7362 18.2613 13.0563 18.2125 14.1137C18.1599 15.0891 17.997 15.6203 17.8598 15.973C17.67 16.4434 17.4583 16.7723 17.1087 17.1281C16.756 17.4771 16.4203 17.6925 15.9536 17.8748C15.6053 18.0127 15.0665 18.1755 14.0874 18.2213C13.0244 18.2664 12.7112 18.2795 10.0288 18.2795C7.34639 18.2795 7.0338 18.2664 5.96949 18.2175C4.99413 18.1649 4.45603 18.002 4.10335 17.8648C3.62726 17.675 3.30089 17.4633 2.95134 17.1137C2.59866 16.761 2.37439 16.4253 2.2015 15.9586C2.06118 15.6103 1.90081 15.0716 1.84882 14.0924C1.81311 13.0419 1.7962 12.7162 1.7962 10.0463C1.7962 7.37772 1.81311 7.05135 1.84882 5.98766C1.90081 5.00855 2.06118 4.47107 2.2015 4.12152C2.37439 3.64481 2.59928 3.31906 2.95134 2.96638C3.30026 2.61746 3.62726 2.39194 4.10335 2.21529C4.45603 2.0781 4.98098 1.91523 5.96009 1.86637C7.02315 1.82815 7.33636 1.81437 10.015 1.81437L10.0563 1.84319ZM10.0563 4.91709C7.2117 4.91709 4.91144 7.22048 4.91144 10.062C4.91144 12.9066 7.21483 15.2069 10.0563 15.2069C12.901 15.2069 15.2012 12.9035 15.2012 10.062C15.2012 7.21735 12.8978 4.91709 10.0563 4.91709ZM10.0563 13.4027C8.20961 13.4027 6.71557 11.9087 6.71557 10.062C6.71557 8.21526 8.20961 6.72122 10.0563 6.72122C11.9031 6.72122 13.3971 8.21526 13.3971 10.062C13.3971 11.9087 11.9031 13.4027 10.0563 13.4027ZM16.6113 4.71162C16.6113 5.37752 16.0695 5.915 15.4067 5.915C14.7408 5.915 14.2033 5.37689 14.2033 4.71162C14.2033 4.04948 14.7445 3.51075 15.4067 3.51075C16.0688 3.51075 16.6113 4.04948 16.6113 4.71162Z" fill="black"/>
</svg>
