<svg width="42" height="42" viewBox="0 0 42 42" fill="none" xmlns="http://www.w3.org/2000/svg">
<g clip-path="url(#clip0_1215_73)">
<path d="M41.433 4.38744C41.0777 4.1394 40.6237 4.0807 40.2169 4.23009L33.3551 6.75096C31.8815 5.15241 29.7719 4.14877 27.4318 4.14877C25.1256 4.14877 23.0441 5.12413 21.5737 6.68237L14.8986 4.22992C14.6033 4.12154 14.2793 4.12154 13.984 4.22992L0.868753 9.04872C0.346865 9.24054 0 9.7375 0 10.2933V36.5255C0 36.9588 0.211796 37.3649 0.567147 37.6127C0.792733 37.7703 1.05827 37.8514 1.32611 37.8514C1.4801 37.8514 1.63497 37.8245 1.7833 37.7701L14.4414 33.1192L27.1002 37.7701C27.3953 37.8785 27.7193 37.8785 28.0147 37.7701L41.1314 32.9513C41.6533 32.7596 42.0002 32.2627 42.0002 31.7067V5.47453C42 5.04121 41.7884 4.6353 41.433 4.38744ZM27.4317 6.80046C30.4129 6.80046 32.8383 9.2264 32.8383 12.2082C32.8383 16.8758 29.0567 20.3933 27.4317 21.6891C25.8066 20.3933 22.025 16.8756 22.025 12.2082C22.025 9.2264 24.4504 6.80046 27.4317 6.80046ZM39.3481 30.7812L27.5574 35.1127L14.8986 30.4619C14.6033 30.3535 14.2793 30.3535 13.984 30.4619L2.65187 34.6259V11.2188L14.4414 6.88727L20.0627 8.95255C19.6207 9.94894 19.3732 11.0498 19.3732 12.2083C19.3732 18.5537 24.5952 22.9074 26.2314 24.116V30.7875C26.2314 31.5198 26.8251 32.1135 27.5574 32.1135C28.2896 32.1135 28.8833 31.5198 28.8833 30.7875V23.9264C30.7437 22.4973 35.4902 18.2581 35.4902 12.2083C35.4902 11.0809 35.2566 10.0071 34.8368 9.03175L39.3483 7.37433V30.7812H39.3481Z" fill="#DC4400"/>
<path d="M14.4414 9.88689C13.7091 9.88689 13.1155 10.4806 13.1155 11.2128V25.9684C13.1155 26.7006 13.7091 27.2943 14.4414 27.2943C15.1737 27.2943 15.7674 26.7006 15.7674 25.9684V11.2128C15.7674 10.4806 15.1737 9.88689 14.4414 9.88689Z" fill="#DC4400"/>
</g>
<defs>
<clipPath id="clip0_1215_73">
<rect width="42" height="42" fill="white"/>
</clipPath>
</defs>
</svg>
