<svg width="42" height="42" viewBox="0 0 42 42" fill="none" xmlns="http://www.w3.org/2000/svg">
<g clip-path="url(#clip0_1215_77)">
<path d="M13.0334 13.3568C16.8774 13.3568 19.8887 11.2894 19.8887 8.65023C19.8887 6.01064 16.8774 3.94291 13.0334 3.94291C9.18948 3.94291 6.17822 6.0105 6.17822 8.65023C6.17822 11.2894 9.18948 13.3568 13.0334 13.3568ZM13.0334 6.06337C15.5557 6.06337 17.768 7.27212 17.768 8.65009C17.768 10.1741 15.2729 11.2361 13.0334 11.2361C10.2433 11.2361 8.29883 9.87311 8.29883 8.65009C8.29883 7.27212 10.5113 6.06337 13.0334 6.06337Z" fill="#DC4400"/>
<path d="M26.067 16.1986C26.0675 15.5773 26.0673 15.6953 26.0663 8.67257C26.0663 8.66521 26.0668 8.65786 26.0668 8.65051C26.0668 3.7341 20.0906 0.0549927 13.0335 0.0549927C5.97756 0.0549927 0.0104617 3.73085 0.000565495 8.63849C0.000565495 8.64274 0 8.64684 0 8.65122C0 9.60648 0 32.1191 0 33.3492C0 41.0336 13.735 44.5474 21.754 39.7622C30.2502 45.4311 42 39.4397 42 28.9099C41.9999 20.3561 34.0178 14.3523 26.067 16.1986ZM13.0334 2.1756C18.9465 2.1756 23.9421 5.13851 23.9459 8.64655C23.9459 8.64811 23.9456 8.64966 23.9456 8.65122C23.9456 8.66125 23.9447 8.67087 23.9446 8.68091C23.9158 12.1769 18.9304 15.124 13.0332 15.124C7.11802 15.124 2.12075 12.1595 2.12075 8.65065C2.12089 5.14077 7.11831 2.1756 13.0334 2.1756ZM2.12046 13.3884C4.82141 16.0968 9.16384 17.2446 13.0334 17.2446C16.8646 17.2446 21.2355 16.1063 23.9462 13.3886C23.9464 14.0018 23.9471 16.2717 23.9456 16.8803C20.9233 18.1404 18.5834 20.474 17.2545 23.1919C10.1263 25.0142 2.12046 21.7608 2.12046 17.2326V13.3884ZM2.12046 22.0141C5.67474 25.4419 11.571 26.3692 16.377 25.5465C15.8346 27.598 15.7674 29.798 16.3002 31.9854C10.2479 33.1368 2.59322 30.6437 2.14238 26.206C2.11212 25.9094 2.12046 26.1996 2.12046 22.0141ZM2.12046 33.3492V30.5599C5.64816 34.0757 12.0317 35.0393 16.9736 34.0158C17.6731 35.6622 18.7191 37.1471 19.9603 38.3306C13.0372 41.8172 2.12046 38.7815 2.12046 33.3492ZM22.4227 37.6413C15.4039 32.3737 17.2139 21.4748 25.3422 18.6144C25.3429 18.6141 25.3435 18.6137 25.3442 18.6135C25.3487 18.612 25.3534 18.6106 25.3579 18.6089C32.4211 16.1289 39.8791 21.3555 39.8791 28.9099C39.8793 38.0494 29.4573 42.9266 22.4227 37.6413Z" fill="#DC4400"/>
<path d="M28.968 20.2579C24.1981 20.2579 20.3167 24.1384 20.3167 28.9101C20.3167 33.68 24.1974 37.5607 28.9674 37.5607C33.7381 37.5607 37.6202 33.6807 37.6202 28.9099C37.6201 24.1391 33.7388 20.2579 28.968 20.2579ZM28.968 35.44C25.3672 35.44 22.4378 32.5106 22.4378 28.9099C22.4378 25.308 25.3677 22.3786 28.9673 22.3786C32.5688 22.3786 35.4986 25.3086 35.4986 28.9101C35.4988 32.51 32.5695 35.44 28.968 35.44Z" fill="#DC4400"/>
<path d="M29.5035 28.2849V26.5702C29.807 26.6416 30.1107 26.7756 30.4233 26.9631C31.0113 27.3157 31.5256 26.4622 30.9235 26.1236C30.5126 25.8646 30.0662 25.695 29.5391 25.6323V25.4358C29.5391 25.2215 29.3695 25.0518 29.1552 25.0518C28.9407 25.0518 28.7622 25.2215 28.7622 25.4358V25.6234C27.6459 25.7128 26.8867 26.3735 26.8867 27.3292C26.8867 28.3384 27.494 28.8295 28.7979 29.1689V30.9283C28.3066 30.839 27.896 30.6336 27.4761 30.33C27.1791 30.0989 26.6902 30.2903 26.6902 30.7229C26.6902 30.9105 26.7795 31.0533 26.9314 31.1515C27.4761 31.5355 28.0923 31.7767 28.762 31.8481V32.4017C28.762 32.9022 29.539 32.9174 29.539 32.4017V31.8659C30.6732 31.7587 31.4413 31.1067 31.4413 30.1245C31.4415 29.1691 30.861 28.6242 29.5035 28.2849ZM28.7979 28.0973C28.1103 27.8739 27.9406 27.6418 27.9406 27.2667C27.9406 26.8737 28.2263 26.5702 28.7979 26.5165V28.0973ZM29.5035 30.9641V29.3387C30.191 29.553 30.3877 29.7942 30.3877 30.1871C30.3877 30.6159 30.0751 30.9016 29.5035 30.9641Z" fill="#DC4400"/>
</g>
<defs>
<clipPath id="clip0_1215_77">
<rect width="42" height="42" fill="white"/>
</clipPath>
</defs>
</svg>
