<svg width="21" height="21" viewBox="0 0 21 21" fill="none" xmlns="http://www.w3.org/2000/svg">
<path d="M18.3422 2.46602C15.8761 3.48743 5.30164 7.86749 2.37992 9.06127C0.420486 9.82593 1.56757 10.5429 1.56757 10.5429C1.56757 10.5429 3.24018 11.1163 4.67408 11.5464C6.10778 11.9766 6.87243 11.4987 6.87243 11.4987L13.611 6.95853C16.0006 5.33362 15.4271 6.67171 14.8535 7.24535C13.611 8.48804 11.556 10.4473 9.83544 12.0245C9.07078 12.6935 9.45301 13.267 9.78773 13.5538C11.0302 14.6053 14.4236 16.7559 14.6146 16.8992C15.6242 17.614 17.61 18.6428 17.9121 16.4691L19.1069 8.96587C19.4893 6.43299 19.8715 4.09113 19.9192 3.42208C20.0627 1.79697 18.3422 2.46602 18.3422 2.46602Z" fill="black"/>
</svg>
