<svg width="38" height="38" viewBox="0 0 38 38" fill="none" xmlns="http://www.w3.org/2000/svg">
<path d="M19 0H17.2864V9.03502H20.7125V3.5208C28.563 4.37555 34.5717 10.9875 34.5717 19.0001C34.5717 27.5878 27.5856 34.5738 19 34.5738C10.4141 34.5738 3.42832 27.5878 3.42832 19.0001C3.42832 15.4854 4.5704 12.1689 6.72986 9.4101L7.33367 8.64091L4.6344 6.52852L4.03191 7.29782C1.39422 10.6657 0 14.7126 0 19C0 29.4761 8.52292 38 19 38C29.4761 38 38 29.4774 38 19C38 8.52292 29.4761 0 19 0Z" fill="#DC4400"/>
<path d="M16.269 21.9109C16.8897 22.6552 17.7619 23.1122 18.7227 23.1979C18.8336 23.2085 18.9445 23.2138 19.0535 23.2138C20.9072 23.2138 22.4913 21.7651 22.6577 19.9182C22.7448 18.9561 22.4517 18.0162 21.8317 17.271C21.2109 16.5259 20.3394 16.0683 19.376 15.9805C19.0593 15.9528 18.7381 15.9696 18.3968 16.0367L7.93188 7.16817L15.6192 18.4654C15.5225 18.7466 15.4637 19.0091 15.4405 19.2647C15.3535 20.2265 15.6477 21.1668 16.269 21.9109Z" fill="#DC4400"/>
</svg>
