<svg width="21" height="21" viewBox="0 0 21 21" fill="none" xmlns="http://www.w3.org/2000/svg">
<g clip-path="url(#clip0_724_72)">
<path d="M15.216 11.5523C15.1769 11.5335 13.7157 10.814 13.4561 10.7205C13.35 10.6825 13.2365 10.6453 13.1157 10.6453C12.9184 10.6453 12.7527 10.7436 12.6235 10.9368C12.4776 11.1538 12.0357 11.6703 11.8992 11.8246C11.8814 11.8449 11.857 11.8693 11.8424 11.8693C11.8294 11.8693 11.6032 11.7761 11.5348 11.7464C9.96728 11.0655 8.7775 9.42814 8.61436 9.15202C8.59106 9.11233 8.59009 9.0943 8.58989 9.0943C8.59562 9.07328 8.64833 9.02044 8.67553 8.99317C8.75512 8.91443 8.84134 8.81064 8.92477 8.71022C8.96427 8.66265 9.00384 8.61502 9.04269 8.57012C9.16373 8.42929 9.21761 8.31996 9.28008 8.19333L9.31282 8.12754C9.46535 7.82448 9.33507 7.56873 9.29297 7.48615C9.25841 7.41704 8.64143 5.92798 8.57583 5.77154C8.41809 5.39403 8.20965 5.21826 7.92 5.21826C7.89313 5.21826 7.92 5.21826 7.80729 5.22301C7.67005 5.2288 6.92265 5.3272 6.5922 5.53551C6.24177 5.75644 5.64893 6.46069 5.64893 7.69921C5.64893 8.81389 6.3563 9.86636 6.66001 10.2666C6.66756 10.2767 6.68142 10.2972 6.70153 10.3266C7.86462 12.0252 9.31457 13.2841 10.7844 13.8712C12.1995 14.4365 12.8696 14.5018 13.2505 14.5018C13.2506 14.5018 13.2506 14.5018 13.2506 14.5018C13.4107 14.5018 13.5388 14.4893 13.6519 14.4781L13.7236 14.4713C14.2124 14.428 15.2867 13.8713 15.5311 13.1922C15.7236 12.6574 15.7743 12.073 15.6462 11.8609C15.5585 11.7167 15.4074 11.6442 15.216 11.5523Z" fill="black"/>
<path d="M10.5843 0.0332031C5.15597 0.0332031 0.739674 4.41631 0.739674 9.80387C0.739674 11.5464 1.20601 13.2521 2.08941 14.7449L0.398547 19.7327C0.36705 19.8257 0.390477 19.9285 0.459262 19.9985C0.508915 20.0492 0.576268 20.0765 0.645053 20.0765C0.671409 20.0765 0.69796 20.0726 0.72386 20.0643L5.92471 18.4116C7.34792 19.172 8.95646 19.5734 10.5844 19.5734C16.0122 19.5735 20.4281 15.1908 20.4281 9.80387C20.4281 4.41631 16.0122 0.0332031 10.5843 0.0332031ZM10.5843 17.5382C9.05251 17.5382 7.56885 17.0959 6.2935 16.259C6.25061 16.2308 6.20083 16.2164 6.15072 16.2164C6.12423 16.2164 6.09768 16.2204 6.07185 16.2286L3.46654 17.0568L4.30758 14.5755C4.33478 14.4952 4.32118 14.4066 4.27107 14.3382C3.29988 13.0111 2.7865 11.4433 2.7865 9.80387C2.7865 5.53861 6.28458 2.06851 10.5843 2.06851C14.8834 2.06851 18.3811 5.53861 18.3811 9.80387C18.3812 14.0686 14.8836 17.5382 10.5843 17.5382Z" fill="black"/>
</g>
<defs>
<clipPath id="clip0_724_72">
<rect width="20.0433" height="20.0433" fill="white" transform="translate(0.385742 0.034668)"/>
</clipPath>
</defs>
</svg>
