<svg width="21" height="21" viewBox="0 0 21 21" fill="none" xmlns="http://www.w3.org/2000/svg">
<g clip-path="url(#clip0_724_76)">
<path d="M19.475 4.2182C18.7515 3.35815 17.4157 3.00732 14.8646 3.00732H5.60429C2.99484 3.00732 1.63642 3.38078 0.915635 4.29643C0.212891 5.1892 0.212891 6.50463 0.212891 8.32521V11.7952C0.212891 15.3223 1.04669 17.113 5.60429 17.113H14.8647C17.077 17.113 18.3028 16.8035 19.0959 16.0445C19.9092 15.2661 20.2562 13.9953 20.2562 11.7952V8.32521C20.2562 6.40525 20.2018 5.08207 19.475 4.2182ZM13.0808 10.5393L8.87568 12.737C8.78167 12.7861 8.67887 12.8105 8.57619 12.8105C8.45994 12.8105 8.34395 12.7792 8.24121 12.717C8.04776 12.5998 7.92964 12.3901 7.92964 12.164V7.78261C7.92964 7.55684 8.04744 7.34735 8.2405 7.23006C8.43363 7.11278 8.67383 7.10476 8.87419 7.20886L13.0793 9.39242C13.2932 9.5035 13.4276 9.72436 13.4279 9.96533C13.4282 10.2065 13.2944 10.4277 13.0808 10.5393Z" fill="black"/>
</g>
<defs>
<clipPath id="clip0_724_76">
<rect width="20.0433" height="20.0433" fill="white" transform="translate(0.211914 0.0390625)"/>
</clipPath>
</defs>
</svg>
